# Blender 5.1.1
# www.blender.org
mtllib Ball.mtl
o Cube
v -0.500000 -0.500000 0.500000
v -0.500000 0.500000 0.500000
v -0.500000 -0.500000 -0.500000
v -0.500000 0.500000 -0.500000
v 0.500000 -0.500000 0.500000
v 0.500000 0.500000 0.500000
v 0.500000 -0.500000 -0.500000
v 0.500000 0.500000 -0.500000
v -0.572933 -0.572933 -0.296650
v -0.609568 -0.609568 -0.000000
v -0.572933 -0.572933 0.296650
v -0.572933 -0.296650 0.572933
v -0.609568 -0.000000 0.609568
v -0.572933 0.296650 0.572933
v -0.572933 0.572933 0.296650
v -0.609568 0.609568 0.000000
v -0.572933 0.572933 -0.296650
v -0.572933 0.296650 -0.572933
v -0.609568 -0.000000 -0.609568
v -0.572933 -0.296650 -0.572933
v 0.296650 -0.572933 -0.572933
v 0.000000 -0.609568 -0.609568
v -0.296650 -0.572933 -0.572933
v -0.296650 0.572933 -0.572933
v -0.000000 0.609568 -0.609568
v 0.296650 0.572933 -0.572933
v 0.572933 0.296650 -0.572933
v 0.609568 -0.000000 -0.609568
v 0.572933 -0.296650 -0.572933
v 0.572933 -0.572933 0.296650
v 0.609568 -0.609568 0.000000
v 0.572933 -0.572933 -0.296650
v 0.572933 0.572933 -0.296650
v 0.609568 0.609568 0.000000
v 0.572933 0.572933 0.296650
v 0.572933 0.296650 0.572933
v 0.609568 -0.000000 0.609568
v 0.572933 -0.296650 0.572933
v -0.296650 -0.572933 0.572933
v -0.000000 -0.609568 0.609568
v 0.296650 -0.572933 0.572933
v 0.296650 0.572933 0.572933
v -0.000000 0.609568 0.609568
v -0.296650 0.572933 0.572933
v -0.728990 -0.316157 0.316157
v -0.781829 -0.000000 0.333140
v -0.728990 0.316157 0.316157
v -0.781829 -0.333140 -0.000000
v -0.839506 0.000000 0.000000
v -0.781829 0.333140 0.000000
v -0.728990 -0.316157 -0.316157
v -0.781829 0.000000 -0.333140
v -0.728990 0.316157 -0.316157
v -0.316157 -0.316157 -0.728990
v -0.333140 -0.000000 -0.781829
v -0.316157 0.316157 -0.728990
v 0.000000 -0.333140 -0.781829
v 0.000000 0.000000 -0.839506
v -0.000000 0.333140 -0.781829
v 0.316157 -0.316157 -0.728990
v 0.333140 0.000000 -0.781829
v 0.316157 0.316157 -0.728990
v 0.728990 -0.316157 -0.316157
v 0.781829 -0.000000 -0.333140
v 0.728990 0.316157 -0.316157
v 0.781829 -0.333140 0.000000
v 0.839506 0.000000 0.000000
v 0.781829 0.333140 -0.000000
v 0.728990 -0.316157 0.316157
v 0.781829 0.000000 0.333140
v 0.728990 0.316157 0.316157
v 0.316157 -0.316157 0.728990
v 0.333140 -0.000000 0.781829
v 0.316157 0.316157 0.728990
v -0.000000 -0.333140 0.781829
v -0.000000 0.000000 0.839506
v 0.000000 0.333140 0.781829
v -0.316157 -0.316157 0.728990
v -0.333140 0.000000 0.781829
v -0.316157 0.316157 0.728990
v -0.316157 -0.728990 -0.316157
v -0.000000 -0.781829 -0.333140
v 0.316157 -0.728990 -0.316157
v -0.333140 -0.781829 0.000000
v 0.000000 -0.839506 0.000000
v 0.333140 -0.781829 -0.000000
v -0.316157 -0.728990 0.316157
v 0.000000 -0.781829 0.333140
v 0.316157 -0.728990 0.316157
v 0.316157 0.728990 -0.316157
v 0.000000 0.781829 -0.333140
v -0.316157 0.728990 -0.316157
v 0.333140 0.781829 0.000000
v -0.000000 0.839506 0.000000
v -0.333140 0.781829 -0.000000
v 0.316157 0.728990 0.316157
v -0.000000 0.781829 0.333140
v -0.316157 0.728990 0.316157
vn -0.5774 -0.5774 0.5774
vn -0.5774 0.5774 0.5774
vn -0.5774 -0.5774 -0.5774
vn -0.5774 0.5774 -0.5774
vn 0.5774 -0.5774 0.5774
vn 0.5774 0.5774 0.5774
vn 0.5774 -0.5774 -0.5774
vn 0.5774 0.5774 -0.5774
vn -0.6709 -0.6709 -0.3157
vn -0.7071 -0.7071 -0.0000
vn -0.6709 -0.6709 0.3157
vn -0.6709 -0.3157 0.6709
vn -0.7071 -0.0000 0.7071
vn -0.6709 0.3157 0.6709
vn -0.6709 0.6709 0.3157
vn -0.7071 0.7071 -0.0000
vn -0.6709 0.6709 -0.3157
vn -0.6709 0.3157 -0.6709
vn -0.7071 -0.0000 -0.7071
vn -0.6709 -0.3157 -0.6709
vn 0.3157 -0.6709 -0.6709
vn -0.0000 -0.7071 -0.7071
vn -0.3157 -0.6709 -0.6709
vn -0.3157 0.6709 -0.6709
vn -0.0000 0.7071 -0.7071
vn 0.3157 0.6709 -0.6709
vn 0.6709 0.3157 -0.6709
vn 0.7071 -0.0000 -0.7071
vn 0.6709 -0.3157 -0.6709
vn 0.6709 -0.6709 0.3157
vn 0.7071 -0.7071 -0.0000
vn 0.6709 -0.6709 -0.3157
vn 0.6709 0.6709 -0.3157
vn 0.7071 0.7071 -0.0000
vn 0.6709 0.6709 0.3157
vn 0.6709 0.3157 0.6709
vn 0.7071 -0.0000 0.7071
vn 0.6709 -0.3157 0.6709
vn -0.3157 -0.6709 0.6709
vn -0.0000 -0.7071 0.7071
vn 0.3157 -0.6709 0.6709
vn 0.3157 0.6709 0.6709
vn -0.0000 0.7071 0.7071
vn -0.3157 0.6709 0.6709
vn -0.8797 -0.3362 0.3362
vn -0.9345 -0.0000 0.3560
vn -0.8797 0.3362 0.3362
vn -0.9345 -0.3560 -0.0000
vn -1.0000 -0.0000 -0.0000
vn -0.9345 0.3560 -0.0000
vn -0.8797 -0.3362 -0.3362
vn -0.9345 -0.0000 -0.3560
vn -0.8797 0.3362 -0.3362
vn -0.3362 -0.3362 -0.8797
vn -0.3560 -0.0000 -0.9345
vn -0.3362 0.3362 -0.8797
vn -0.0000 -0.3560 -0.9345
vn -0.0000 -0.0000 -1.0000
vn -0.0000 0.3560 -0.9345
vn 0.3362 -0.3362 -0.8797
vn 0.3560 -0.0000 -0.9345
vn 0.3362 0.3362 -0.8797
vn 0.8797 -0.3362 -0.3362
vn 0.9345 -0.0000 -0.3560
vn 0.8797 0.3362 -0.3362
vn 0.9345 -0.3560 -0.0000
vn 1.0000 -0.0000 -0.0000
vn 0.9345 0.3560 -0.0000
vn 0.8797 -0.3362 0.3362
vn 0.9345 -0.0000 0.3560
vn 0.8797 0.3362 0.3362
vn 0.3362 -0.3362 0.8797
vn 0.3560 -0.0000 0.9345
vn 0.3362 0.3362 0.8797
vn -0.0000 -0.3560 0.9345
vn -0.0000 -0.0000 1.0000
vn -0.0000 0.3560 0.9345
vn -0.3362 -0.3362 0.8797
vn -0.3560 -0.0000 0.9345
vn -0.3362 0.3362 0.8797
vn -0.3362 -0.8797 -0.3362
vn -0.0000 -0.9345 -0.3560
vn 0.3362 -0.8797 -0.3362
vn -0.3560 -0.9345 -0.0000
vn -0.0000 -1.0000 -0.0000
vn 0.3560 -0.9345 -0.0000
vn -0.3362 -0.8797 0.3362
vn -0.0000 -0.9345 0.3560
vn 0.3362 -0.8797 0.3362
vn 0.3362 0.8797 -0.3362
vn -0.0000 0.9345 -0.3560
vn -0.3362 0.8797 -0.3362
vn 0.3560 0.9345 -0.0000
vn -0.0000 1.0000 -0.0000
vn -0.3560 0.9345 -0.0000
vn 0.3362 0.8797 0.3362
vn -0.0000 0.9345 0.3560
vn -0.3362 0.8797 0.3362
vt 0.250000 0.250000
vt 0.166667 0.250000
vt 0.166667 0.166667
vt 0.250000 0.166667
vt 0.083333 0.250000
vt 0.083333 0.166667
vt 0.166667 0.083333
vt 0.250000 0.083333
vt 0.083333 0.083333
vt 0.333333 0.333333
vt 0.250000 0.333333
vt 0.333333 0.250000
vt 0.166667 0.333333
vt 0.083333 0.333333
vt 0.000000 0.333333
vt 0.000000 0.250000
vt 0.000000 0.166667
vt 0.000000 0.083333
vt 0.000000 0.000000
vt 0.083333 0.000000
vt 0.166667 0.000000
vt 0.250000 0.000000
vt 0.333333 0.083333
vt 0.333333 0.000000
vt 0.333333 0.166667
vt 0.250000 0.583333
vt 0.166667 0.583333
vt 0.166667 0.500000
vt 0.250000 0.500000
vt 0.083333 0.583333
vt 0.083333 0.500000
vt 0.166667 0.416667
vt 0.250000 0.416667
vt 0.083333 0.416667
vt 0.333333 0.666667
vt 0.250000 0.666667
vt 0.333333 0.583333
vt 0.166667 0.666667
vt 0.083333 0.666667
vt 0.000000 0.666667
vt 0.000000 0.583333
vt 0.000000 0.500000
vt 0.000000 0.416667
vt 0.000000 0.333333
vt 0.083333 0.333333
vt 0.166667 0.333333
vt 0.250000 0.333333
vt 0.333333 0.416667
vt 0.333333 0.333333
vt 0.333333 0.500000
vt 0.583333 0.250000
vt 0.500000 0.250000
vt 0.500000 0.166667
vt 0.583333 0.166667
vt 0.416667 0.250000
vt 0.416667 0.166667
vt 0.500000 0.083333
vt 0.583333 0.083333
vt 0.416667 0.083333
vt 0.666667 0.333333
vt 0.583333 0.333333
vt 0.666667 0.250000
vt 0.500000 0.333333
vt 0.416667 0.333333
vt 0.333333 0.333333
vt 0.333333 0.250000
vt 0.333333 0.166667
vt 0.333333 0.083333
vt 0.333333 0.000000
vt 0.416667 0.000000
vt 0.500000 0.000000
vt 0.583333 0.000000
vt 0.666667 0.083333
vt 0.666667 0.000000
vt 0.666667 0.166667
vt 0.583333 0.583333
vt 0.500000 0.583333
vt 0.500000 0.500000
vt 0.583333 0.500000
vt 0.416667 0.583333
vt 0.416667 0.500000
vt 0.500000 0.416667
vt 0.583333 0.416667
vt 0.416667 0.416667
vt 0.666667 0.666667
vt 0.583333 0.666667
vt 0.666667 0.583333
vt 0.500000 0.666667
vt 0.416667 0.666667
vt 0.333333 0.666667
vt 0.333333 0.583333
vt 0.333333 0.500000
vt 0.333333 0.416667
vt 0.333333 0.333333
vt 0.416667 0.333333
vt 0.500000 0.333333
vt 0.583333 0.333333
vt 0.666667 0.416667
vt 0.666667 0.333333
vt 0.666667 0.500000
vt 0.250000 0.750000
vt 0.250000 0.833333
vt 0.166667 0.833333
vt 0.166667 0.750000
vt 0.250000 0.916667
vt 0.166667 0.916667
vt 0.083333 0.833333
vt 0.083333 0.750000
vt 0.083333 0.916667
vt 0.333333 0.750000
vt 0.333333 0.833333
vt 0.333333 0.916667
vt 0.333333 1.000000
vt 0.250000 1.000000
vt 0.166667 1.000000
vt 0.083333 1.000000
vt 0.000000 1.000000
vt 0.000000 0.916667
vt 0.000000 0.833333
vt 0.000000 0.750000
vt 0.083333 0.666667
vt 0.000000 0.666667
vt 0.583333 0.750000
vt 0.583333 0.833333
vt 0.500000 0.833333
vt 0.500000 0.750000
vt 0.583333 0.916667
vt 0.500000 0.916667
vt 0.416667 0.833333
vt 0.416667 0.750000
vt 0.416667 0.916667
vt 0.666667 0.666667
vt 0.666667 0.750000
vt 0.583333 0.666667
vt 0.666667 0.833333
vt 0.666667 0.916667
vt 0.666667 1.000000
vt 0.583333 1.000000
vt 0.500000 1.000000
vt 0.416667 1.000000
vt 0.333333 1.000000
vt 0.333333 0.916667
vt 0.333333 0.833333
vt 0.333333 0.750000
vt 0.500000 0.666667
s 1
usemtl Material.001
f 45/1/45 46/2/46 49/3/49 48/4/48
f 46/2/46 47/5/47 50/6/50 49/3/49
f 48/4/48 49/3/49 52/7/52 51/8/51
f 49/3/49 50/6/50 53/9/53 52/7/52
f 1/10/1 12/11/12 45/1/45 11/12/11
f 12/11/12 13/13/13 46/2/46 45/1/45
f 13/13/13 14/14/14 47/5/47 46/2/46
f 14/14/14 2/15/2 15/16/15 47/5/47
f 47/5/47 15/16/15 16/17/16 50/6/50
f 50/6/50 16/17/16 17/18/17 53/9/53
f 53/9/53 17/18/17 4/19/4 18/20/18
f 52/7/52 53/9/53 18/20/18 19/21/19
f 51/8/51 52/7/52 19/21/19 20/22/20
f 9/23/9 51/8/51 20/22/20 3/24/3
f 10/25/10 48/4/48 51/8/51 9/23/9
f 11/12/11 45/1/45 48/4/48 10/25/10
f 54/26/54 55/27/55 58/28/58 57/29/57
f 55/27/55 56/30/56 59/31/59 58/28/58
f 57/29/57 58/28/58 61/32/61 60/33/60
f 58/28/58 59/31/59 62/34/62 61/32/61
f 3/35/3 20/36/20 54/26/54 23/37/23
f 20/36/20 19/38/19 55/27/55 54/26/54
f 19/38/19 18/39/18 56/30/56 55/27/55
f 18/39/18 4/40/4 24/41/24 56/30/56
f 56/30/56 24/41/24 25/42/25 59/31/59
f 59/31/59 25/42/25 26/43/26 62/34/62
f 62/34/62 26/43/26 8/44/8 27/45/27
f 61/32/61 62/34/62 27/45/27 28/46/28
f 60/33/60 61/32/61 28/46/28 29/47/29
f 21/48/21 60/33/60 29/47/29 7/49/7
f 22/50/22 57/29/57 60/33/60 21/48/21
f 23/37/23 54/26/54 57/29/57 22/50/22
f 63/51/63 64/52/64 67/53/67 66/54/66
f 64/52/64 65/55/65 68/56/68 67/53/67
f 66/54/66 67/53/67 70/57/70 69/58/69
f 67/53/67 68/56/68 71/59/71 70/57/70
f 7/60/7 29/61/29 63/51/63 32/62/32
f 29/61/29 28/63/28 64/52/64 63/51/63
f 28/63/28 27/64/27 65/55/65 64/52/64
f 27/64/27 8/65/8 33/66/33 65/55/65
f 65/55/65 33/66/33 34/67/34 68/56/68
f 68/56/68 34/67/34 35/68/35 71/59/71
f 71/59/71 35/68/35 6/69/6 36/70/36
f 70/57/70 71/59/71 36/70/36 37/71/37
f 69/58/69 70/57/70 37/71/37 38/72/38
f 30/73/30 69/58/69 38/72/38 5/74/5
f 31/75/31 66/54/66 69/58/69 30/73/30
f 32/62/32 63/51/63 66/54/66 31/75/31
f 72/76/72 73/77/73 76/78/76 75/79/75
f 73/77/73 74/80/74 77/81/77 76/78/76
f 75/79/75 76/78/76 79/82/79 78/83/78
f 76/78/76 77/81/77 80/84/80 79/82/79
f 5/85/5 38/86/38 72/76/72 41/87/41
f 38/86/38 37/88/37 73/77/73 72/76/72
f 37/88/37 36/89/36 74/80/74 73/77/73
f 36/89/36 6/90/6 42/91/42 74/80/74
f 74/80/74 42/91/42 43/92/43 77/81/77
f 77/81/77 43/92/43 44/93/44 80/84/80
f 80/84/80 44/93/44 2/94/2 14/95/14
f 79/82/79 80/84/80 14/95/14 13/96/13
f 78/83/78 79/82/79 13/96/13 12/97/12
f 39/98/39 78/83/78 12/97/12 1/99/1
f 40/100/40 75/79/75 78/83/78 39/98/39
f 41/87/41 72/76/72 75/79/75 40/100/40
f 81/101/81 82/102/82 85/103/85 84/104/84
f 82/102/82 83/105/83 86/106/86 85/103/85
f 84/104/84 85/103/85 88/107/88 87/108/87
f 85/103/85 86/106/86 89/109/89 88/107/88
f 3/35/3 23/110/23 81/101/81 9/36/9
f 23/110/23 22/111/22 82/102/82 81/101/81
f 22/111/22 21/112/21 83/105/83 82/102/82
f 21/112/21 7/113/7 32/114/32 83/105/83
f 83/105/83 32/114/32 31/115/31 86/106/86
f 86/106/86 31/115/31 30/116/30 89/109/89
f 89/109/89 30/116/30 5/117/5 41/118/41
f 88/107/88 89/109/89 41/118/41 40/119/40
f 87/108/87 88/107/88 40/119/40 39/120/39
f 11/121/11 87/108/87 39/120/39 1/122/1
f 10/38/10 84/104/84 87/108/87 11/121/11
f 9/36/9 81/101/81 84/104/84 10/38/10
f 90/123/90 91/124/91 94/125/94 93/126/93
f 91/124/91 92/127/92 95/128/95 94/125/94
f 93/126/93 94/125/94 97/129/97 96/130/96
f 94/125/94 95/128/95 98/131/98 97/129/97
f 8/132/8 26/133/26 90/123/90 33/134/33
f 26/133/26 25/135/25 91/124/91 90/123/90
f 25/135/25 24/136/24 92/127/92 91/124/91
f 24/136/24 4/137/4 17/138/17 92/127/92
f 92/127/92 17/138/17 16/139/16 95/128/95
f 95/128/95 16/139/16 15/140/15 98/131/98
f 98/131/98 15/140/15 2/141/2 44/142/44
f 97/129/97 98/131/98 44/142/44 43/143/43
f 96/130/96 97/129/97 43/143/43 42/144/42
f 35/89/35 96/130/96 42/144/42 6/90/6
f 34/145/34 93/126/93 96/130/96 35/89/35
f 33/134/33 90/123/90 93/126/93 34/145/34
