# Blender 5.1.0
# www.blender.org
mtllib Barrier.mtl
o Barrier
v 0.900000 0.330447 -1.000000
v 0.900000 0.330447 1.000000
v -0.900000 0.330447 -1.000000
v -0.900000 0.330447 1.000000
v -1.466667 0.193759 1.000000
v -0.333333 0.389244 1.000000
v 0.000000 0.398060 1.000000
v 0.333333 0.389244 1.000000
v 1.466667 0.193759 1.000000
v 1.466667 0.193759 -1.000000
v 0.333333 0.389244 -1.000000
v -0.000000 0.398060 -1.000000
v -0.333333 0.389244 -1.000000
v -1.466667 0.193759 -1.000000
v -1.565244 0.156222 1.000000
v -1.800000 0.017475 0.765244
v -1.682622 0.101485 0.968549
v -1.768549 0.048513 0.882622
v 1.800000 0.017475 0.765244
v 1.565244 0.156222 1.000000
v 1.768549 0.048513 0.882622
v 1.682622 0.101485 0.968549
v -1.565244 0.156222 -1.000000
v -1.800000 0.017475 -0.765244
v -1.682622 0.101485 -0.968549
v -1.768549 0.048513 -0.882622
v 1.565244 0.156222 -1.000000
v 1.800000 0.017475 -0.765244
v 1.682622 0.101485 -0.968549
v 1.768549 0.048513 -0.882622
v 0.896616 0.310736 -1.000000
v 0.896616 0.310736 1.000000
v -0.896616 0.310736 -1.000000
v -0.896616 0.310736 1.000000
v -1.459660 0.175027 1.000000
v -0.332036 0.369287 1.000000
v 0.000000 0.378060 1.000000
v 0.332036 0.369287 1.000000
v 1.459660 0.175027 1.000000
v 1.459660 0.175027 -1.000000
v 0.332036 0.369287 -1.000000
v -0.000000 0.378060 -1.000000
v -0.332036 0.369287 -1.000000
v -1.459660 0.175027 -1.000000
v -1.556024 0.138474 1.000000
v -1.790780 -0.000272 0.765244
v -1.673402 0.083737 0.968549
v -1.759328 0.030765 0.882622
v 1.790780 -0.000272 0.765244
v 1.556024 0.138474 1.000000
v 1.759328 0.030765 0.882622
v 1.673402 0.083737 0.968549
v -1.556024 0.138474 -1.000000
v -1.790780 -0.000272 -0.765244
v -1.673402 0.083737 -0.968549
v -1.759328 0.030765 -0.882622
v 1.556024 0.138474 -1.000000
v 1.790780 -0.000272 -0.765244
v 1.673402 0.083737 -0.968549
v 1.759328 0.030765 -0.882622
vn 0.1221 0.7111 -0.6924
vn 0.1221 0.7111 0.6924
vn -0.1221 0.7111 -0.6924
vn -0.1221 0.7111 0.6924
vn -0.2519 0.6734 0.6950
vn -0.0464 0.7140 0.6986
vn -0.0000 0.7130 0.7012
vn 0.0464 0.7140 0.6986
vn 0.2519 0.6734 0.6950
vn 0.2519 0.6734 -0.6950
vn 0.0464 0.7140 -0.6986
vn -0.0000 0.7130 -0.7012
vn -0.0464 0.7140 -0.6986
vn -0.2519 0.6734 -0.6950
vn -0.3979 0.5693 0.7194
vn -0.9615 0.2401 0.1338
vn -0.6079 0.4378 0.6624
vn -0.8476 0.3027 0.4359
vn 0.9615 0.2401 0.1338
vn 0.3979 0.5693 0.7194
vn 0.8476 0.3027 0.4359
vn 0.6079 0.4378 0.6624
vn -0.3979 0.5693 -0.7194
vn -0.9615 0.2401 -0.1338
vn -0.6079 0.4378 -0.6624
vn -0.8476 0.3027 -0.4359
vn 0.3979 0.5693 -0.7194
vn 0.9615 0.2401 -0.1338
vn 0.6079 0.4378 -0.6624
vn 0.8476 0.3027 -0.4359
vn -0.1169 -0.6815 -0.7224
vn -0.1169 -0.6815 0.7224
vn 0.1169 -0.6815 -0.7224
vn 0.1169 -0.6815 0.7224
vn 0.2419 -0.6466 0.7234
vn 0.0453 -0.6968 0.7159
vn -0.0000 -0.7011 0.7131
vn -0.0453 -0.6968 0.7159
vn -0.2419 -0.6466 0.7234
vn -0.2419 -0.6466 -0.7234
vn -0.0453 -0.6968 -0.7159
vn -0.0000 -0.7011 -0.7131
vn 0.0453 -0.6968 -0.7159
vn 0.2419 -0.6466 -0.7234
vn 0.2353 -0.6342 0.7365
vn -0.3269 -0.9372 0.1215
vn -0.0112 -0.7334 0.6797
vn -0.2623 -0.8664 0.4248
vn 0.3269 -0.9372 0.1215
vn -0.2353 -0.6342 0.7365
vn 0.2623 -0.8664 0.4248
vn 0.0112 -0.7334 0.6797
vn 0.2353 -0.6342 -0.7365
vn -0.3269 -0.9372 -0.1215
vn -0.0112 -0.7334 -0.6797
vn -0.2623 -0.8664 -0.4248
vn -0.2353 -0.6342 -0.7365
vn 0.3269 -0.9372 -0.1215
vn 0.0112 -0.7334 -0.6797
vn 0.2623 -0.8664 -0.4248
vt 0.592593 0.000000
vt 0.750000 0.000000
vt 0.750000 1.000000
vt 0.592592 1.000000
vt 0.092593 0.000000
vt 0.250000 0.000000
vt 0.250000 1.000000
vt 0.092593 1.000000
vt 0.407407 0.000000
vt 0.407407 1.000000
vt 0.500000 0.000000
vt 0.500000 1.000000
vt 0.907407 0.000000
vt 0.907407 1.000000
vt 0.000000 0.117378
vt 0.008736 0.058689
vt 0.032605 0.015726
vt 0.065210 0.000000
vt 0.065210 1.000000
vt 0.032605 0.984274
vt 0.008736 0.941311
vt 0.000000 0.882622
vt 0.934790 0.000000
vt 0.967395 0.015726
vt 0.991263 0.058689
vt 1.000000 0.117378
vt 1.000000 0.882622
vt 0.991263 0.941311
vt 0.967395 0.984274
vt 0.934790 1.000000
vt 0.592232 0.000000
vt 0.592232 1.000000
vt 0.749060 1.000000
vt 0.749060 0.000000
vt 0.094539 0.000000
vt 0.094539 1.000000
vt 0.250940 1.000000
vt 0.250940 0.000000
vt 0.407768 1.000000
vt 0.407768 0.000000
vt 0.905461 1.000000
vt 0.905461 0.000000
vt 0.002561 0.117378
vt 0.002561 0.882622
vt 0.011298 0.941311
vt 0.035166 0.984274
vt 0.067771 1.000000
vt 0.067771 0.000000
vt 0.035166 0.015726
vt 0.011298 0.058689
vt 0.932229 1.000000
vt 0.964834 0.984274
vt 0.988702 0.941311
vt 0.997439 0.882622
vt 0.997439 0.117378
vt 0.988702 0.058689
vt 0.964834 0.015726
vt 0.932229 0.000000
s 1
f 8/1/8 2/2/2 1/3/1 11/4/11
f 5/5/5 4/6/4 3/7/3 14/8/14
f 4/6/4 6/9/6 13/10/13 3/7/3
f 6/9/6 7/11/7 12/12/12 13/10/13
f 7/11/7 8/1/8 11/4/11 12/12/12
f 2/2/2 9/13/9 10/14/10 1/3/1
f 16/15/16 18/16/18 17/17/17 15/18/15 5/5/5 14/8/14 23/19/23 25/20/25 26/21/26 24/22/24
f 9/13/9 20/23/20 22/24/22 21/25/21 19/26/19 28/27/28 30/28/30 29/29/29 27/30/27 10/14/10
f 38/31/38 41/32/41 31/33/31 32/34/32
f 35/35/35 44/36/44 33/37/33 34/38/34
f 34/38/34 33/37/33 43/39/43 36/40/36
f 36/40/36 43/39/43 42/12/42 37/11/37
f 37/11/37 42/12/42 41/32/41 38/31/38
f 32/34/32 31/33/31 40/41/40 39/42/39
f 46/43/46 54/44/54 56/45/56 55/46/55 53/47/53 44/36/44 35/35/35 45/48/45 47/49/47 48/50/48
f 39/42/39 40/41/40 57/51/57 59/52/59 60/53/60 58/54/58 49/55/49 51/56/51 52/57/52 50/58/50
f 2/2/2 8/1/8 38/31/38 32/34/32
f 3/7/3 13/10/13 43/39/43 33/37/33
f 1/3/1 10/14/10 40/41/40 31/33/31
f 6/9/6 4/6/4 34/38/34 36/40/36
f 7/11/7 6/9/6 36/40/36 37/11/37
f 8/1/8 7/11/7 37/11/37 38/31/38
f 9/13/9 2/2/2 32/34/32 39/42/39
f 4/6/4 5/5/5 35/35/35 34/38/34
f 11/4/11 1/3/1 31/33/31 41/32/41
f 12/12/12 11/4/11 41/32/41 42/12/42
f 13/10/13 12/12/12 42/12/42 43/39/43
f 14/8/14 3/7/3 33/37/33 44/36/44
f 16/15/16 24/22/24 54/44/54 46/43/46
f 18/16/18 16/15/16 46/43/46 48/50/48
f 17/17/17 18/16/18 48/50/48 47/49/47
f 15/18/15 17/17/17 47/49/47 45/48/45
f 5/5/5 15/18/15 45/48/45 35/35/35
f 23/19/23 14/8/14 44/36/44 53/47/53
f 25/20/25 23/19/23 53/47/53 55/46/55
f 26/21/26 25/20/25 55/46/55 56/45/56
f 24/22/24 26/21/26 56/45/56 54/44/54
f 20/23/20 9/13/9 39/42/39 50/58/50
f 22/24/22 20/23/20 50/58/50 52/57/52
f 21/25/21 22/24/22 52/57/52 51/56/51
f 19/26/19 21/25/21 51/56/51 49/55/49
f 28/27/28 19/26/19 49/55/49 58/54/58
f 30/28/30 28/27/28 58/54/58 60/53/60
f 29/29/29 30/28/30 60/53/60 59/52/59
f 27/30/27 29/29/29 59/52/59 57/51/57
f 10/14/10 27/30/27 57/51/57 40/41/40
