# Blender 5.1.1
# www.blender.org
o Sphere
v -0.000311 0.655048 0.001007
v 0.059581 0.588770 -0.431098
v 0.209897 -0.460442 -1.333423
v 0.426667 0.654737 -0.704382
v 0.183752 -0.853224 -0.254863
v 0.011471 -0.117461 0.608034
v -0.169834 -0.504762 0.323579
v -0.335934 -0.444924 0.348240
v -1.238331 0.421628 -0.573831
v -0.495542 -1.104563 -0.261658
v -0.136697 -0.943837 -0.035478
v -0.799713 -0.118257 -0.992457
v -0.510799 -1.151437 -0.525635
v -0.385024 -0.042973 -1.040448
v 0.017691 0.627390 -0.102438
v 0.240035 0.595868 -1.007989
v 0.219147 0.102144 -1.403746
v 0.027241 0.286024 -1.283712
v 0.248940 -0.204290 -1.419773
v -0.014697 0.701003 -0.318558
v 0.471020 0.195584 -1.346627
v 0.460547 -0.473458 -1.304965
v 0.211167 -0.837502 -0.635847
v 0.281340 0.351921 -1.288390
v 0.591470 -0.782884 -0.702479
v 0.714591 -0.235859 -1.277299
v 0.520106 -0.111817 -1.395078
v 0.452165 -0.663183 -1.147935
v 0.097481 0.540440 -0.307574
v 0.247872 -0.793763 -0.398770
v 0.828293 -0.471157 -1.029328
v 0.768506 -0.639535 -0.856550
v 0.098506 -0.773341 -0.061092
v 0.360521 -0.841648 -0.727820
v 0.137627 0.749710 -0.160285
v 0.902984 -0.099387 -1.107727
v 0.091053 0.690140 -0.171289
v 0.641327 0.774584 -0.429340
v 0.843096 -0.574847 -0.568013
v 0.997479 0.089747 -0.816073
v 0.819855 0.315472 -1.016350
v 1.010174 -0.190721 -0.826253
v 0.843683 -0.492567 -0.377742
v 0.362074 -0.663061 -0.194027
v 0.188950 -0.777542 -0.091044
v 0.562974 -0.736017 -0.403003
v 0.757569 0.486679 -0.587451
v 0.992098 0.080864 -0.521131
v 0.971113 -0.378280 -0.727291
v 0.357582 0.861664 -0.244674
v 1.203760 0.665574 -0.156259
v 1.226034 0.012883 -0.293570
v 0.304004 -0.767824 -0.196026
v 1.137077 0.344036 -0.435541
v 0.600542 -0.479273 -0.111539
v 0.437279 -0.462507 -0.041787
v 1.335103 0.301342 -0.187158
v 0.956764 0.796879 -0.301582
v 0.497853 0.996678 -0.021265
v 1.208303 0.759026 0.108764
v 0.074972 -0.665237 0.013251
v 1.132709 -0.311240 -0.074802
v 0.700632 0.973671 -0.131443
v 0.758040 -0.435459 -0.209757
v 0.262736 -0.409542 0.005496
v 0.246049 -0.646618 -0.019261
v 1.375121 0.453024 0.065229
v 1.376177 0.051758 0.050685
v 1.245017 0.266456 0.624223
v 1.311144 0.566384 0.339346
v 1.375942 0.207616 0.342737
v 0.194602 -0.492472 0.050195
v 1.341900 -0.034815 0.262185
v 1.196894 -0.230748 0.380975
v 1.043954 -0.382456 0.329870
v 1.009344 0.919143 0.035786
v 0.577368 -0.519803 0.163493
v 0.522002 1.003695 0.294806
v 0.728417 -0.609814 0.519035
v 0.437584 -0.689643 0.217221
v 0.903884 -0.480175 0.216574
v 0.668054 -0.526889 0.237610
v 0.911553 0.917264 0.424029
v 1.203725 -0.039185 0.588587
v 0.927651 0.749948 0.665310
v 0.965573 0.347623 0.847277
v 0.928528 -0.310066 0.610937
v 1.189853 0.492335 0.630426
v 0.965634 0.034119 0.824737
v 0.350777 0.972323 0.087371
v 0.618553 0.580709 0.857916
v 0.592360 -0.016559 0.885579
v 0.518481 -0.172472 0.790215
v 0.310687 -0.788179 0.538907
v 0.597042 -0.740140 0.483249
v 0.209830 -0.626847 0.162626
v 0.674048 0.181638 0.925805
v 0.014929 0.698517 0.109719
v 0.237466 0.244806 0.825708
v 0.208200 -0.063104 0.721684
v 0.323141 -0.734116 0.722258
v 0.135954 -0.687195 0.310547
v 0.505611 -0.321815 0.871914
v 0.522484 -0.606913 0.831677
v 0.406155 0.738416 0.705432
v 0.473912 -0.761735 0.665580
v 0.356797 -0.793360 0.412462
v 0.057615 0.512911 0.591640
v 0.153643 -0.715897 0.595820
v 0.287816 0.542482 0.787637
v 0.369344 0.330057 0.876868
v 0.001048 0.645081 0.337935
v -0.013338 -0.510713 0.255143
v -0.036379 -0.568945 0.191939
v 0.032072 -0.471586 0.135653
v 0.126085 -0.164140 0.733280
v 0.018404 -0.448279 0.694015
v 0.243783 -0.615667 0.815576
v -0.181051 -0.334923 0.643683
v 0.025371 -0.617373 0.490053
v -0.020129 0.103652 0.744876
v -0.096371 0.411398 0.231389
v -0.367212 0.561238 0.788307
v -0.077103 -0.411737 0.323178
v -0.252371 0.312296 0.948629
v -0.647446 0.596323 0.819123
v -0.618119 -0.430015 0.772703
v -0.094554 -0.587824 0.127711
v -0.464927 0.355214 1.042756
v -0.073061 0.511520 0.158937
v -0.453239 -0.390919 0.813597
v -0.067625 0.428550 0.392924
v -0.418689 0.654197 0.504572
v -0.258807 -0.533578 0.239369
v -0.630485 -0.183472 1.042543
v -0.228985 0.538470 0.279410
v -0.180069 -0.351510 0.303661
v -0.592924 0.656892 0.670171
v -0.763792 0.187946 1.090282
v -0.422165 0.622047 0.313900
v -1.087435 0.133277 0.847728
v -1.126133 -0.064332 0.696770
v -0.730757 -0.465021 0.527232
v -0.821650 0.474873 0.911861
v -0.997142 0.310003 0.908858
v -0.903372 -0.356506 0.374559
v -0.500389 -0.532831 0.236987
v -0.368313 -0.561756 0.156681
v -0.252134 -0.551774 0.170594
v -0.285614 0.666234 0.215674
v -0.733683 0.619935 0.318602
v -0.513875 0.794078 0.160901
v -0.508569 -0.504850 0.115446
v -0.382084 -0.783025 0.089201
v -1.104293 0.123628 0.278904
v -1.124825 -0.075667 0.426555
v -1.010382 -0.185254 0.265016
v -0.774848 -0.381453 0.246697
v -1.042166 0.607067 0.134789
v -0.696884 -0.565455 0.005177
v -0.643896 -0.730978 0.011284
v -1.058071 -0.306310 0.126573
v -0.739413 -0.482658 0.134106
v -0.829970 0.757513 0.134765
v -0.992924 0.781545 -0.124893
v -1.167819 -0.344360 -0.184135
v -1.269680 0.114563 0.051426
v -0.915755 -0.496466 -0.019545
v -0.855040 -0.803366 -0.315094
v -0.885548 -0.569628 -0.286064
v -0.754224 0.874257 -0.047976
v -1.172957 0.615228 -0.121032
v -1.338405 0.040123 -0.340213
v -0.151629 0.796051 -0.075258
v -1.218877 -0.054203 -0.659660
v -1.014380 -0.315808 -0.739707
v -0.910657 -0.677908 -0.470018
v -0.143757 -1.079439 -0.200408
v -1.252926 -0.166813 -0.466565
v -0.525710 0.937505 -0.292146
v -0.781056 0.905646 -0.258537
v -1.027823 0.763917 -0.406105
v -0.694777 -0.994441 -0.289159
v -1.268428 0.468835 -0.386649
v -0.837325 -0.412261 -0.763212
v -0.854153 -0.771373 -0.709766
v -1.061878 0.359404 -0.847262
v -1.150555 0.071016 -0.805680
v -0.405689 0.892423 -0.067244
v -0.700326 -0.570643 -0.967141
v -0.728190 -0.800528 -0.886093
v -0.070638 0.749763 -0.074798
v -0.319948 0.897424 -0.346244
v -0.669898 -0.990384 -0.764447
v -0.622086 0.781373 -0.752644
v -0.319592 -0.353489 -1.063188
v -0.232008 -1.103695 -0.789333
v -0.479641 -1.043845 -0.857602
v -0.586916 0.607437 -0.931560
v -0.487175 0.287028 -1.071944
v -0.079293 0.739458 -0.139516
v -0.163174 0.825669 -0.308392
v -0.134115 0.527230 -0.834112
v -0.205232 0.076807 -1.237557
v -0.237830 -0.951622 -0.965782
v -0.228694 -1.171448 -0.430635
v -0.404457 -0.209191 -0.969322
v -0.314472 0.575223 -0.906245
v 0.019104 -1.074453 -0.440146
v -0.284755 0.288143 -1.023482
v -0.003144 -0.563160 -1.205191
v -0.027462 0.596181 -0.645171
v 0.002132 0.569426 -0.919078
v 0.042266 -0.970919 -0.194066
v 0.121534 -0.810507 -0.855747
v 0.138643 0.655524 -0.640536
v -0.051557 0.417649 -1.128823
v 0.018255 -0.833124 -0.018430
v 0.147456 0.809703 -0.057720
v 0.156354 0.832309 -0.007057
v 0.086566 -0.715102 -0.016299
v 0.064818 -0.486062 0.070245
v 0.018722 -0.613498 0.075640
v 0.063687 -0.615681 0.043033
v -0.067314 0.669377 0.088434
v -0.020033 -0.678266 0.073752
v -0.042289 -0.737735 0.063020
v -0.003582 0.682269 -0.010223
v -0.124997 0.744777 0.055524
v -0.143596 0.781714 0.004718
v 0.265962 -0.774992 -0.997706
v 0.710165 0.192552 -1.230045
v 0.172737 -0.939255 -0.503223
v 0.506104 0.497274 -1.101338
v 0.531489 0.610948 -0.533120
v 0.295599 0.625409 -0.435724
v 0.766888 0.473999 -0.820738
v 0.935686 0.262457 -0.566523
v 1.024827 -0.202747 -0.612456
v 0.963111 -0.223117 -0.385582
v 1.104913 0.523048 -0.401235
v 1.207049 -0.271306 0.104431
v 0.432041 -0.481200 0.061013
v 1.120227 0.795002 0.383637
v 0.124236 0.822042 0.083406
v 0.728469 1.013872 0.272494
v 0.767945 -0.444959 0.461896
v 0.601375 -0.638077 0.271521
v 0.123203 -0.472052 0.068686
v 0.215971 0.884444 0.316656
v 0.646450 0.851515 0.636106
v 0.883284 0.582086 0.801105
v 0.475011 0.919086 0.507712
v 0.663227 -0.620766 0.707433
v 0.745844 -0.325286 0.660885
v 0.656134 -0.398808 0.799930
v 0.073004 0.772408 0.120556
v 0.212025 0.780865 0.529295
v 0.353390 -0.468080 0.892959
v 0.342479 -0.253994 0.866828
v 0.043860 0.000853 0.572464
v 0.012733 -0.484802 0.097305
v 0.175038 -0.369894 0.838067
v -0.090471 -0.297133 0.476233
v -0.007028 0.309482 0.569647
v -0.018275 0.640103 0.065653
v -0.042167 -0.212019 0.555953
v -0.198058 -0.016280 0.949393
v -0.299238 -0.256272 0.890970
v -0.093486 -0.299431 0.382392
v -0.130437 0.410797 0.738470
v -0.111239 -0.570714 0.290400
v -0.017345 -0.527448 0.109621
v -0.163732 0.515297 0.568254
v -0.135638 -0.612083 0.206096
v -0.428858 0.028102 1.089684
v -0.058601 0.622466 0.111419
v -0.303698 -0.436031 0.541020
v -0.733644 -0.289882 0.935493
v -0.375044 -0.554263 0.247487
v -0.844610 0.596034 0.660476
v -0.115149 0.699392 0.092790
v -0.957094 -0.055904 0.973914
v -0.941587 -0.283355 0.798034
v -0.229266 0.746103 0.086676
v -0.517853 -0.485820 0.521412
v -0.461677 -0.463187 0.326806
v -1.043312 0.441796 0.663619
v -1.172326 0.143591 0.530739
v -0.079393 -0.779575 0.061902
v -1.024042 -0.285189 0.555709
v -1.039283 0.455908 0.462006
v -1.018527 0.397362 0.297191
v -0.561458 -0.424204 0.229121
v -1.185734 0.375060 0.127413
v -0.165336 -0.862473 0.037340
v -1.214931 -0.101448 0.066800
v -0.331627 -0.986096 -0.044631
v -1.315544 0.289943 -0.157634
v -1.075674 -0.433016 -0.408910
v -0.589994 -0.914063 -0.063050
v -0.905715 -0.492722 -0.583168
v -0.754747 0.871096 -0.533884
v -0.741973 -1.007126 -0.522648
v -0.997535 0.694838 -0.649183
v -0.805018 0.093415 -1.037032
v -0.620499 -0.292140 -0.940854
v -0.368586 -1.169172 -0.593955
v -0.832523 0.495711 -0.946973
v -0.472472 -0.663148 -1.083296
v -0.277495 0.709286 -0.775279
v -0.459627 0.879184 -0.572499
v -0.129683 0.758794 -0.548293
v -0.271802 -0.701128 -1.086191
v -0.015786 -1.068245 -0.670806
v -0.028473 0.684438 -0.116430
v -0.252141 -0.237543 -1.198429
v -0.015125 -0.134307 -1.378736
v -0.040483 -0.677530 -1.029677
vn 0.0893 0.9819 0.1669
vn 0.3506 0.9326 0.0858
vn -0.1058 -0.4895 -0.8656
vn 0.2009 0.9777 -0.0612
vn 0.6296 -0.7357 0.2496
vn 0.0876 -0.0996 0.9912
vn -0.2950 -0.2594 0.9196
vn 0.2999 -0.8780 0.3732
vn -0.8665 0.3196 -0.3835
vn -0.2799 -0.8843 0.3737
vn 0.2617 -0.6831 0.6819
vn -0.3258 -0.3468 -0.8795
vn -0.3443 -0.9382 -0.0341
vn -0.4487 -0.0921 -0.8889
vn 0.0709 0.9457 -0.3172
vn -0.0431 0.8962 -0.4415
vn -0.0845 0.2392 -0.9673
vn -0.3342 0.4923 -0.8037
vn -0.0252 -0.1520 -0.9881
vn 0.7301 0.6832 -0.0170
vn 0.2689 0.3794 -0.8853
vn 0.2774 -0.4856 -0.8290
vn 0.4011 -0.9092 -0.1115
vn 0.0008 0.6090 -0.7932
vn 0.4125 -0.9096 -0.0496
vn 0.5825 -0.2039 -0.7869
vn 0.3203 -0.0206 -0.9471
vn 0.2495 -0.7619 -0.5978
vn 0.0437 0.9779 -0.2045
vn 0.5776 -0.8021 0.1516
vn 0.7190 -0.4926 -0.4903
vn 0.6351 -0.7298 -0.2528
vn 0.4782 -0.5827 0.6571
vn 0.1407 -0.9873 -0.0739
vn -0.6269 0.6465 -0.4348
vn 0.8237 -0.0007 -0.5671
vn -0.7101 0.5440 -0.4471
vn 0.0224 0.6881 -0.7253
vn 0.7533 -0.6431 0.1374
vn 0.9448 0.2597 -0.1998
vn 0.7316 0.5167 -0.4448
vn 0.9619 -0.1311 -0.2401
vn 0.7480 -0.5398 0.3862
vn 0.5401 -0.6415 0.5448
vn 0.3262 -0.7420 0.5857
vn 0.3888 -0.8457 0.3655
vn 0.5333 0.6948 -0.4826
vn 0.9204 -0.0129 -0.3909
vn 0.9054 -0.4200 -0.0621
vn -0.3493 0.7807 -0.5182
vn 0.7513 0.5336 -0.3884
vn 0.7722 -0.3150 -0.5517
vn 0.7260 -0.6532 0.2151
vn 0.6556 0.1124 -0.7467
vn 0.2489 -0.9378 0.2422
vn -0.0678 -0.9411 0.3313
vn 0.9023 0.0753 -0.4246
vn 0.4184 0.6969 -0.5825
vn -0.1545 0.9623 -0.2237
vn 0.7552 0.6537 -0.0484
vn 0.4082 -0.3794 0.8303
vn 0.6336 -0.7133 -0.2996
vn 0.1073 0.9267 -0.3601
vn 0.5162 -0.8444 0.1429
vn 0.4292 -0.9023 0.0410
vn 0.5554 -0.3570 0.7510
vn 0.9606 0.2600 -0.0977
vn 0.9574 -0.2487 -0.1465
vn 0.7998 0.0107 0.6002
vn 0.8805 0.3987 0.2564
vn 0.9666 -0.0302 0.2547
vn 0.3313 -0.9392 0.0900
vn 0.9175 -0.3621 0.1648
vn 0.7330 -0.6042 0.3125
vn 0.5237 -0.8171 0.2409
vn 0.4820 0.8652 -0.1385
vn 0.2110 -0.8545 -0.4746
vn -0.1524 0.9700 0.1891
vn 0.8771 -0.4801 0.0145
vn 0.1938 -0.7682 -0.6102
vn 0.3562 -0.9333 0.0460
vn 0.4670 -0.8427 -0.2678
vn 0.3669 0.8630 0.3473
vn 0.7400 -0.3621 0.5669
vn 0.3967 0.6446 0.6535
vn 0.4294 0.1281 0.8940
vn 0.4006 -0.6858 0.6076
vn 0.7197 0.3411 0.6047
vn 0.4282 -0.2986 0.8529
vn -0.3816 0.9210 -0.0781
vn -0.0040 0.4131 0.9107
vn -0.0542 -0.3528 0.9341
vn 0.1136 -0.0233 0.9932
vn -0.2127 -0.9741 0.0762
vn 0.5124 -0.8545 -0.0845
vn -0.2415 -0.7351 -0.6335
vn 0.0541 -0.0446 0.9975
vn -0.8153 0.5790 0.0012
vn -0.5343 -0.0423 0.8443
vn -0.4771 0.1284 0.8694
vn -0.1678 -0.8212 0.5454
vn -0.4867 -0.8178 -0.3072
vn 0.3089 0.1975 0.9304
vn 0.3078 -0.4733 0.8253
vn -0.2830 0.6396 0.7147
vn 0.2367 -0.9006 0.3646
vn -0.0403 -0.9760 -0.2140
vn -0.7444 0.3431 0.5728
vn -0.5636 -0.7837 0.2611
vn -0.4581 0.3798 0.8036
vn -0.2765 0.0918 0.9566
vn -0.8275 0.5091 0.2369
vn -0.1410 -0.9737 0.1792
vn 0.6351 -0.7679 0.0835
vn 0.1353 -0.9598 -0.2461
vn -0.5629 0.3383 0.7542
vn -0.8046 -0.1982 0.5598
vn -0.3838 -0.5055 0.7728
vn 0.5956 -0.7241 0.3477
vn -0.7947 -0.5968 0.1105
vn 0.8614 0.0608 0.5043
vn -0.1004 0.9129 0.3956
vn 0.3607 0.8024 0.4754
vn -0.5949 -0.3761 0.7104
vn 0.5751 0.3580 0.7356
vn -0.0755 0.8425 0.5334
vn -0.0917 -0.9048 0.4159
vn 0.3463 -0.7637 0.5449
vn 0.1940 0.4569 0.8681
vn -0.2979 0.6622 0.6875
vn 0.2176 -0.8294 0.5146
vn -0.2026 0.9475 0.2473
vn 0.2354 0.9718 0.0101
vn -0.1008 -0.7984 0.5936
vn -0.0433 -0.4640 0.8848
vn 0.5833 0.7484 0.3157
vn 0.1376 -0.6762 0.7237
vn -0.0146 0.9813 0.1920
vn -0.2637 0.1487 0.9531
vn 0.2174 0.9241 0.3144
vn -0.8609 0.0685 0.5042
vn -0.9171 -0.2989 0.2639
vn -0.3012 -0.9533 0.0249
vn -0.3592 0.6572 0.6626
vn -0.6802 0.3687 0.6336
vn -0.5762 -0.7803 -0.2434
vn -0.5549 -0.7774 0.2963
vn -0.2076 -0.7617 0.6138
vn -0.1084 -0.8219 0.5592
vn 0.4032 0.6395 0.6545
vn -0.2989 0.8907 0.3425
vn 0.0596 0.8141 0.5777
vn -0.4252 -0.7305 0.5344
vn -0.1460 -0.4171 0.8971
vn -0.9784 0.0161 0.2059
vn -0.9267 -0.3147 -0.2055
vn -0.8169 -0.5442 0.1911
vn -0.3816 -0.9053 0.1865
vn -0.6091 0.5800 0.5410
vn -0.4708 -0.6018 0.6452
vn -0.5675 -0.3015 0.7662
vn -0.6256 -0.5934 0.5065
vn -0.2164 -0.8065 0.5502
vn -0.3440 0.7682 0.5400
vn -0.5595 0.8046 0.1988
vn -0.7886 -0.6001 0.1340
vn -0.9142 -0.0443 0.4028
vn -0.4652 -0.8189 0.3362
vn -0.8696 -0.3916 0.3008
vn -0.8057 -0.5469 0.2275
vn -0.2213 0.9264 0.3045
vn -0.7949 0.5754 0.1925
vn -0.9900 -0.1219 -0.0712
vn 0.4274 0.8909 0.1539
vn -0.8620 -0.2192 -0.4571
vn -0.5970 -0.5498 -0.5843
vn -0.9838 -0.1792 0.0098
vn 0.2437 -0.8626 0.4433
vn -0.8799 -0.4230 -0.2162
vn 0.0131 0.9999 0.0085
vn -0.2845 0.9583 0.0261
vn -0.6219 0.7686 -0.1496
vn -0.6246 -0.7067 0.3324
vn -0.9051 0.4081 -0.1192
vn -0.6772 -0.3045 -0.6699
vn -0.8934 -0.3043 -0.3305
vn -0.6497 0.2668 -0.7118
vn -0.7511 -0.0811 -0.6552
vn 0.1786 0.9413 0.2866
vn -0.6336 0.0291 -0.7732
vn -0.6473 -0.3640 -0.6697
vn 0.6144 0.7883 0.0323
vn 0.3140 0.9464 -0.0760
vn -0.5845 -0.6927 -0.4225
vn -0.1089 0.7932 -0.5991
vn -0.5030 -0.0696 -0.8615
vn 0.1858 -0.8632 -0.4695
vn -0.2724 -0.7413 -0.6135
vn -0.0415 0.5798 -0.8137
vn 0.0389 0.1727 -0.9842
vn 0.6936 0.7176 -0.0627
vn 0.5217 0.8530 -0.0173
vn 0.0253 0.8123 -0.5826
vn -0.6218 0.2320 -0.7480
vn 0.1537 -0.5989 -0.7859
vn 0.1469 -0.9834 0.1061
vn -0.4194 -0.0735 -0.9048
vn 0.2803 0.5220 -0.8056
vn 0.5343 -0.8406 0.0886
vn -0.2158 0.4290 -0.8771
vn -0.3730 -0.6047 -0.7037
vn 0.1769 0.9443 -0.2776
vn -0.3437 0.8812 -0.3247
vn 0.5704 -0.7027 0.4254
vn 0.2165 -0.8557 -0.4700
vn -0.1633 0.9863 0.0224
vn -0.4183 0.6737 -0.6092
vn 0.5171 -0.5210 0.6791
vn -0.6258 0.7299 -0.2749
vn -0.6000 0.7738 -0.2030
vn 0.4114 -0.4367 0.8000
vn 0.2819 -0.5801 0.7642
vn 0.4700 -0.2364 0.8504
vn 0.4439 -0.3175 0.8379
vn 0.4350 0.5719 0.6955
vn 0.4356 -0.2863 0.8534
vn 0.3971 -0.3239 0.8588
vn 0.8216 0.5262 0.2193
vn 0.4045 0.7290 0.5522
vn 0.2302 0.9342 0.2725
vn 0.0138 -0.8930 -0.4499
vn 0.5760 0.3587 -0.7346
vn 0.7740 -0.6315 -0.0460
vn 0.3170 0.7713 -0.5518
vn 0.1135 0.8837 -0.4540
vn -0.2522 0.9275 -0.2759
vn 0.6374 0.7450 -0.1965
vn 0.7832 0.3382 -0.5218
vn 0.9838 -0.1459 0.1043
vn 0.8566 -0.4915 -0.1573
vn 0.5966 0.3805 -0.7066
vn 0.7557 -0.6527 -0.0537
vn -0.0387 -0.8561 -0.5154
vn 0.6437 0.7005 0.3081
vn -0.6603 0.7473 -0.0752
vn 0.1463 0.9781 0.1478
vn 0.7148 -0.6670 0.2101
vn 0.5572 -0.6622 -0.5010
vn -0.2003 -0.9307 0.3061
vn -0.5461 0.8106 0.2115
vn 0.0433 0.7778 0.6270
vn 0.3295 0.4266 0.8423
vn -0.1968 0.8675 0.4570
vn 0.7183 -0.5134 0.4696
vn 0.5922 -0.3804 0.7103
vn 0.6757 0.0377 0.7362
vn -0.7601 0.6487 0.0393
vn -0.5569 0.6684 0.4930
vn -0.0758 -0.1470 0.9862
vn -0.0976 0.3703 0.9238
vn 0.1201 0.0485 0.9916
vn 0.5954 -0.6578 0.4613
vn -0.5061 0.0576 0.8605
vn -0.2623 -0.8973 0.3550
vn 0.0653 0.4844 0.8724
vn -0.2596 0.8912 0.3721
vn -0.0559 -0.5041 0.8619
vn 0.6411 -0.1820 0.7456
vn 0.4676 -0.5826 0.6647
vn -0.4027 -0.8776 0.2600
vn 0.7107 0.5404 0.4504
vn 0.1548 -0.6949 0.7023
vn 0.7305 -0.5064 0.4582
vn 0.6157 0.7745 0.1449
vn -0.0759 -0.9939 0.0797
vn 0.2690 -0.1171 0.9560
vn 0.3039 0.3794 0.8739
vn 0.3768 -0.9160 0.1374
vn -0.2489 -0.6896 0.6801
vn -0.0352 -0.8913 0.4520
vn -0.4369 0.8824 0.1747
vn 0.1565 0.1141 0.9811
vn -0.5940 -0.2686 0.7583
vn -0.5872 -0.6848 0.4316
vn 0.2999 0.7501 0.5894
vn 0.0613 -0.9960 0.0652
vn -0.1161 -0.9638 0.2402
vn -0.7822 0.5822 0.2217
vn -0.9931 0.1155 -0.0185
vn 0.2730 -0.4108 0.8699
vn -0.7386 -0.6734 0.0329
vn -0.7654 0.6261 -0.1492
vn -0.8230 0.5065 0.2571
vn -0.3897 -0.8865 0.2495
vn -0.8131 0.2880 0.5059
vn 0.1529 -0.5232 0.8384
vn -0.8523 -0.3188 0.4147
vn -0.0637 -0.7226 0.6884
vn -0.9701 0.1883 0.1529
vn -0.6724 -0.7216 -0.1650
vn -0.4651 -0.5885 0.6613
vn -0.8432 -0.4375 -0.3123
vn -0.2635 0.9112 -0.3166
vn -0.7082 -0.7051 -0.0362
vn -0.5654 0.6739 -0.4755
vn -0.3241 -0.0409 -0.9451
vn -0.3351 -0.1052 -0.9363
vn -0.0564 -0.9818 -0.1816
vn -0.3637 0.4312 -0.8257
vn -0.2652 -0.1493 -0.9526
vn 0.3402 0.7271 -0.5963
vn 0.1295 0.9230 -0.3623
vn 0.5493 0.7719 -0.3202
vn 0.0936 -0.1962 -0.9761
vn 0.4940 -0.8064 -0.3251
vn 0.7644 0.6421 -0.0576
vn -0.6696 -0.2047 -0.7139
vn -0.3834 -0.0671 -0.9212
vn -0.0297 -0.6058 -0.7950
vt 0.760245 0.314490
vt 0.708337 0.296737
vt 0.727183 0.253953
vt 0.750343 0.675492
vt 0.714993 0.743134
vt 0.711326 0.661910
vt 0.757241 0.182971
vt 0.698369 0.165676
vt 0.756976 0.611755
vt 0.745140 0.568491
vt 0.715842 0.581260
vt 0.750747 0.466946
vt 0.724967 0.525233
vt 0.721808 0.456078
vt 0.778206 0.937773
vt 0.702229 0.827938
vt 0.765625 0.864966
vt 0.724961 0.396012
vt 0.748433 0.365851
vt 0.690989 0.343389
vt 0.727902 0.793357
vt 0.787456 0.792069
vt 0.757622 0.737392
vt 0.675866 0.247547
vt 0.667364 0.703682
vt 0.682265 0.620953
vt 0.695923 0.539385
vt 0.740834 0.066876
vt 0.647766 0.113896
vt 0.701590 0.984886
vt 0.716060 0.945593
vt 0.707031 0.984375
vt 0.694227 0.475902
vt 0.695011 0.399080
vt 0.716190 0.063828
vt 0.644574 0.023319
vt 0.666275 0.541137
vt 0.667238 0.447943
vt 0.676281 0.986248
vt 0.670593 0.911911
vt 0.642425 0.477705
vt 0.642634 0.393304
vt 0.652965 0.772542
vt 0.638760 0.281190
vt 0.624341 0.713888
vt 0.698663 0.215091
vt 0.659857 0.174313
vt 0.632083 0.621973
vt 0.600303 0.245272
vt 0.605376 0.652960
vt 0.642038 0.574277
vt 0.610572 0.524073
vt 0.622871 0.919119
vt 0.648438 0.968750
vt 0.637051 0.984705
vt 0.617343 0.919312
vt 0.589493 0.845289
vt 0.581952 0.449905
vt 0.610687 0.459268
vt 0.634234 0.339420
vt 0.603342 0.403562
vt 0.594905 0.337307
vt 0.590133 0.749866
vt 0.586247 0.176885
vt 0.589374 0.577514
vt 0.569331 0.346293
vt 0.529461 0.290489
vt 0.543557 0.712827
vt 0.552863 0.634604
vt 0.558430 0.583773
vt 0.574409 0.517124
vt 0.568124 0.040003
vt 0.578751 0.042500
vt 0.578530 0.083228
vt 0.557765 0.445696
vt 0.527044 0.793758
vt 0.537501 0.503177
vt 0.512396 0.416445
vt 0.541172 0.353102
vt 0.516047 0.114835
vt 0.594021 0.134735
vt 0.521683 0.569394
vt 0.537887 0.964046
vt 0.557678 0.935822
vt 0.542213 0.982188
vt 0.517837 0.026782
vt 0.493544 0.511485
vt 0.505394 0.040923
vt 0.486188 0.432059
vt 0.495010 0.940435
vt 0.466462 0.880809
vt 0.462131 0.352486
vt 0.493297 0.734939
vt 0.520833 0.657673
vt 0.452594 0.395630
vt 0.509118 0.837786
vt 0.444771 0.783490
vt 0.447898 0.310950
vt 0.456035 0.274733
vt 0.475009 0.227643
vt 0.492561 0.596699
vt 0.485918 0.677385
vt 0.461123 0.624277
vt 0.499663 0.189174
vt 0.462606 0.127712
vt 0.460893 0.548457
vt 0.467322 0.492313
vt 0.486328 0.007812
vt 0.484801 0.039716
vt 0.484375 0.000000
vt 0.450915 0.448745
vt 0.447668 0.686699
vt 0.426973 0.554093
vt 0.426948 0.495295
vt 0.461437 0.020436
vt 0.443898 0.037154
vt 0.453125 0.000000
vt 0.421277 0.826192
vt 0.430989 0.259709
vt 0.421808 0.197393
vt 0.407921 0.421811
vt 0.413617 0.353118
vt 0.399426 0.311477
vt 0.390302 0.258391
vt 0.391192 0.132719
vt 0.390292 0.508531
vt 0.431289 0.941863
vt 0.348467 0.865676
vt 0.414155 0.095314
vt 0.363990 0.065116
vt 0.400715 0.040978
vt 0.385498 0.587695
vt 0.381098 0.395273
vt 0.367965 0.319755
vt 0.369737 0.790970
vt 0.377813 0.737293
vt 0.431661 0.733241
vt 0.403227 0.687218
vt 0.364892 0.196718
vt 0.384019 0.642991
vt 0.423291 0.614515
vt 0.350860 0.660261
vt 0.312825 0.797079
vt 0.359235 0.381569
vt 0.339630 0.324545
vt 0.334690 0.731418
vt 0.350979 0.261736
vt 0.320480 0.151987
vt 0.352769 0.556955
vt 0.291859 0.097742
vt 0.345889 0.502116
vt 0.341247 0.443255
vt 0.335447 0.399342
vt 0.308699 0.682571
vt 0.313122 0.596922
vt 0.292753 0.588035
vt 0.295200 0.475145
vt 0.328345 0.017015
vt 0.324991 0.012535
vt 0.328125 0.000000
vt 0.334801 0.058276
vt 0.321887 0.033404
vt 0.339844 0.046875
vt 0.276596 0.069530
vt 0.357230 0.058797
vt 0.309946 0.412286
vt 0.310842 0.355280
vt 0.297133 0.304692
vt 0.334066 0.214518
vt 0.292085 0.229095
vt 0.269300 0.725610
vt 0.280711 0.429287
vt 0.268931 0.943500
vt 0.256840 0.853655
vt 0.285208 0.370723
vt 0.215220 0.108762
vt 0.264858 0.038891
vt 0.263672 0.007812
vt 0.265625 0.000000
vt 0.250968 0.458985
vt 0.261716 0.500112
vt 0.239592 0.384307
vt 0.259137 0.316361
vt 0.221835 0.766921
vt 0.262564 0.216736
vt 0.242070 0.149315
vt 0.247722 0.655223
vt 0.240424 0.541283
vt 0.200633 0.729065
vt 0.226039 0.331147
vt 0.214321 0.216426
vt 0.189461 0.157668
vt 0.218688 0.656045
vt 0.207308 0.597578
vt 0.215358 0.495113
vt 0.224350 0.070286
vt 0.243488 0.036451
vt 0.197568 0.418118
vt 0.209422 0.953924
vt 0.169146 0.943359
vt 0.179419 0.893151
vt 0.171126 0.380854
vt 0.205673 0.356784
vt 0.166797 0.311942
vt 0.209301 0.294458
vt 0.167945 0.247950
vt 0.179866 0.679983
vt 0.180746 0.591254
vt 0.155605 0.124144
vt 0.186161 0.505543
vt 0.138523 0.743051
vt 0.134568 0.701092
vt 0.142156 0.660245
vt 0.177093 0.026702
vt 0.167455 0.017845
vt 0.171875 0.000000
vt 0.162218 0.453267
vt 0.153018 0.804206
vt 0.183275 0.823213
vt 0.125085 0.252433
vt 0.127829 0.489312
vt 0.112261 0.431219
vt 0.141865 0.421972
vt 0.137786 0.949914
vt 0.053970 0.896871
vt 0.139319 0.371009
vt 0.124855 0.316827
vt 0.098632 0.285045
vt 0.131577 0.182429
vt 0.172234 0.202009
vt 0.152245 0.544052
vt 0.133307 0.616208
vt 0.117579 0.569710
vt 0.143417 0.041325
vt 0.151109 0.088150
vt 0.095885 0.161526
vt 0.137455 0.012678
vt 0.140625 0.000000
vt 0.091571 0.222239
vt 0.105180 0.661152
vt 0.089274 0.608211
vt 0.104974 0.528861
vt 0.105006 0.979913
vt 0.102763 0.935904
vt 0.112072 0.983766
vt 0.101864 0.841052
vt 0.097588 0.354638
vt 0.066697 0.261809
vt 0.075269 0.711850
vt 0.079764 0.425793
vt 0.064586 0.391284
vt 0.045886 0.806815
vt 0.050747 0.363260
vt 0.099888 0.772037
vt 0.060347 0.303173
vt 0.063777 0.199655
vt 0.065934 0.620013
vt 0.068601 0.533820
vt 0.077937 0.983687
vt 0.080078 0.992188
vt 0.078125 1.000000
vt 0.089000 0.483852
vt 0.057770 0.482359
vt 0.023892 0.727472
vt 0.019616 0.664348
vt 0.033702 0.147102
vt 0.045950 0.612788
vt 0.015793 0.596479
vt 0.039700 0.533780
vt 0.037922 0.964189
vt 0.060630 0.936616
vt 0.045940 0.985053
vt 0.087858 0.054156
vt 0.029462 0.065069
vt 0.045925 0.016158
vt 0.041010 0.441711
vt 0.036950 0.257364
vt 0.008215 0.279546
vt 0.003891 0.852663
vt 0.014691 0.405722
vt 0.003000 0.340136
vt 0.028234 0.320320
vt 0.000000 0.746086
vt 0.001061 0.714805
vt 0.011830 0.475667
vt 0.999465 0.594064
vt 0.980072 0.650187
vt 0.980469 0.569219
vt 0.972422 0.111347
vt 0.960439 0.049876
vt 0.997714 0.078333
vt 0.995226 0.521421
vt 0.960643 0.513783
vt 0.995719 0.470128
vt 0.975663 0.411594
vt 0.998872 0.416269
vt 0.997839 0.902909
vt 0.991699 0.924030
vt 0.928639 0.932942
vt 0.993587 0.343400
vt 0.992992 0.287659
vt 1.000000 0.296875
vt 0.954229 0.324876
vt 0.942703 0.266015
vt 0.991853 0.256315
vt 0.977808 0.181004
vt 0.998167 0.676404
vt 0.979463 0.711175
vt 0.984918 0.772718
vt 0.964482 0.856019
vt 0.945540 0.762915
vt 0.923882 0.315991
vt 0.939574 0.690969
vt 0.936256 0.206254
vt 0.951468 0.609411
vt 0.922510 0.150950
vt 0.927792 0.586325
vt 0.841875 0.078717
vt 0.901102 0.521475
vt 0.869040 0.950089
vt 0.921153 0.989638
vt 0.941741 0.388874
vt 0.900106 0.425195
vt 0.908728 0.362273
vt 0.919954 0.813437
vt 0.900938 0.740766
vt 0.892066 0.305921
vt 0.901035 0.234064
vt 0.906940 0.669549
vt 0.857394 0.777038
vt 0.865222 0.254699
vt 0.858863 0.304970
vt 0.861696 0.714796
vt 0.875743 0.184324
vt 0.829361 0.129798
vt 0.867528 0.615465
vt 0.893878 0.580891
vt 0.853515 0.522622
vt 0.859777 0.463079
vt 0.919242 0.491264
vt 0.839248 0.933364
vt 0.878542 0.388260
vt 0.841094 0.417779
vt 0.849504 0.357183
vt 0.834219 0.241489
vt 0.841158 0.660671
vt 0.823555 0.576489
vt 0.805793 0.728346
vt 0.805003 0.671814
vt 0.838994 0.172290
vt 0.796979 0.205795
vt 0.807291 0.491335
vt 0.792522 0.580403
vt 0.834381 0.038744
vt 0.824523 0.030899
vt 0.829846 0.016864
vt 0.812774 0.436911
vt 0.817350 0.336068
vt 0.871278 0.842046
vt 0.780083 0.441476
vt 0.796857 0.402229
vt 0.774562 0.517180
vt 0.834871 0.869129
vt 0.789506 0.320378
vt 0.787863 0.262425
vt 0.774648 0.675419
vt 0.743256 0.123886
vt 0.734772 0.979223
vt 0.727503 0.954947
vt 0.743986 0.961555
vt 0.740234 0.023437
vt 0.717845 0.049496
vt 0.734820 0.012193
vt 0.584614 0.050422
vt 0.580416 0.017537
vt 0.574219 0.015625
vt 0.604259 0.978835
vt 0.515904 0.245678
vt 0.475507 0.964529
vt 0.482509 0.987381
vt 0.352003 0.932866
vt 0.359960 0.979030
vt 0.363700 0.941873
vt 0.368711 0.962658
vt 0.349984 0.934571
vt 0.318214 0.262647
vt 0.307678 0.956788
vt 0.299734 0.983243
vt 0.231620 0.979831
vt 0.242660 0.966862
vt 0.232397 0.008666
vt 0.199219 0.984375
vt 0.206443 0.980189
vt 0.210455 0.048824
vt 0.162855 0.961555
vt 0.177734 0.976563
vt 0.100553 0.964714
vt 0.070944 0.947107
vt 0.200723 0.035704
vt 0.009124 0.230419
vt 0.006268 0.792950
vt 0.004284 0.635539
vt 0.002647 0.173280
vt 0.006592 0.113426
vt 0.009291 0.530326
vt 0.006204 0.037684
vt 0.014853 0.015187
vt 0.011952 0.953367
vt 0.953082 0.990208
vt 0.952450 0.962933
vt 0.958098 0.980107
vt 0.943739 0.468664
vt 0.829039 0.985712
vt 0.839281 0.955378
vt 0.794461 0.984487
vt 0.807071 0.959216
s 1
f 319/1/319 231/2/231 215/3/215
f 213/4/213 216/5/216 16/6/16
f 315/7/315 215/3/215 233/8/233
f 217/9/217 213/4/213 16/6/16
f 18/10/18 16/6/16 24/11/24
f 318/12/318 17/13/17 19/14/19
f 316/15/316 29/16/29 20/17/20
f 318/12/318 3/18/3 211/19/211
f 3/18/3 28/20/28 211/19/211
f 211/19/211 231/2/231 319/1/319
f 20/17/20 2/21/2 313/22/313
f 212/23/212 2/21/2 216/5/216
f 231/2/231 34/24/34 215/3/215
f 16/6/16 216/5/216 4/25/4
f 24/11/24 234/26/234 21/27/21
f 214/28/214 233/8/233 5/29/5
f 17/13/17 24/11/24 21/27/21
f 1/30/1 15/31/15 228/32/228
f 17/13/17 27/33/27 19/14/19
f 19/14/19 22/34/22 3/18/3
f 214/35/214 5/29/5 218/36/218
f 21/27/21 232/37/232 27/33/27
f 232/37/232 26/38/26 27/33/27
f 15/31/15 1/39/1 37/40/37
f 232/37/232 36/41/36 26/38/26
f 22/34/22 26/38/26 31/42/31
f 29/16/29 37/40/37 236/43/236
f 231/2/231 28/20/28 25/44/25
f 216/5/216 235/45/235 4/25/4
f 23/46/23 34/24/34 30/47/30
f 4/25/4 237/48/237 234/26/234
f 233/8/233 30/47/30 5/29/5
f 23/46/23 30/47/30 233/8/233
f 234/26/234 232/37/232 21/27/21
f 34/24/34 46/49/46 30/47/30
f 34/24/34 25/44/25 46/49/46
f 4/25/4 47/50/47 237/48/237
f 41/51/41 40/52/40 36/41/36
f 35/53/35 37/54/37 1/55/1
f 236/43/236 35/56/35 50/57/50
f 40/52/40 239/58/239 42/59/42
f 32/60/32 49/61/49 39/62/39
f 236/43/236 50/57/50 38/63/38
f 25/44/25 39/62/39 46/49/46
f 30/47/30 46/49/46 44/64/44
f 235/45/235 38/63/38 47/50/47
f 237/48/237 238/65/238 40/52/40
f 46/49/46 43/66/43 55/67/55
f 47/50/47 38/63/38 58/68/58
f 47/50/47 58/68/58 241/69/241
f 54/70/54 48/71/48 238/65/238
f 40/52/40 48/71/48 239/58/239
f 221/72/221 33/73/33 45/74/45
f 48/71/48 240/75/240 239/58/239
f 49/61/49 239/58/239 39/62/39
f 239/58/239 240/75/240 43/66/43
f 38/63/38 50/57/50 63/76/63
f 48/71/48 52/77/52 240/75/240
f 52/77/52 62/78/62 240/75/240
f 43/66/43 240/75/240 64/79/64
f 43/66/43 64/79/64 55/67/55
f 38/63/38 63/76/63 58/68/58
f 44/64/44 66/80/66 53/81/53
f 54/70/54 57/82/57 52/77/52
f 220/83/220 219/84/219 1/85/1
f 45/74/45 66/80/66 221/86/221
f 57/82/57 68/87/68 52/77/52
f 61/88/61 221/86/221 66/80/66
f 68/87/68 242/89/242 62/78/62
f 219/84/219 220/90/220 90/91/90
f 50/57/50 219/84/219 90/91/90
f 62/78/62 81/92/81 64/79/64
f 58/68/58 63/76/63 76/93/76
f 58/68/58 76/93/76 51/94/51
f 242/89/242 81/92/81 62/78/62
f 242/89/242 75/95/75 81/92/81
f 63/76/63 59/96/59 246/97/246
f 81/92/81 82/98/82 64/79/64
f 82/98/82 77/99/77 55/67/55
f 55/67/55 77/99/77 243/100/243
f 67/101/67 60/102/60 70/103/70
f 65/104/65 72/105/72 66/80/66
f 67/101/67 68/87/68 57/82/57
f 67/101/67 71/106/71 68/87/68
f 71/106/71 73/107/73 68/87/68
f 221/108/221 61/109/61 218/110/218
f 73/107/73 74/111/74 242/89/242
f 60/102/60 244/112/244 70/103/70
f 71/106/71 70/103/70 69/113/69
f 73/107/73 71/106/71 84/114/84
f 61/115/61 224/116/224 218/117/218
f 59/96/59 78/118/78 246/97/246
f 90/91/90 78/118/78 59/96/59
f 77/99/77 248/119/248 243/100/243
f 76/93/76 244/112/244 60/102/60
f 243/100/243 80/120/80 72/105/72
f 75/95/75 74/111/74 87/121/87
f 81/92/81 87/121/87 247/122/247
f 82/98/82 79/123/79 248/119/248
f 79/123/79 95/124/95 248/119/248
f 80/120/80 96/125/96 72/105/72
f 84/114/84 69/113/69 89/126/89
f 74/111/74 84/114/84 87/121/87
f 245/127/245 250/128/250 90/91/90
f 249/129/249 222/130/222 224/131/224
f 69/113/69 86/132/86 89/126/89
f 247/122/247 87/121/87 255/133/255
f 90/91/90 250/128/250 78/118/78
f 79/123/79 255/133/255 254/134/254
f 78/118/78 253/135/253 246/97/246
f 246/97/246 251/136/251 83/137/83
f 83/137/83 251/136/251 85/138/85
f 95/124/95 107/139/107 80/120/80
f 85/138/85 252/140/252 88/141/88
f 85/138/85 91/142/91 252/140/252
f 250/128/250 258/143/258 253/135/253
f 254/134/254 256/144/256 104/145/104
f 253/135/253 105/146/105 251/136/251
f 254/134/254 106/147/106 95/124/95
f 254/134/254 104/145/104 106/147/106
f 251/136/251 91/142/91 85/138/85
f 107/139/107 102/148/102 96/125/96
f 86/132/86 91/142/91 97/149/97
f 89/126/89 86/132/86 97/149/97
f 96/125/96 102/148/102 115/150/115
f 89/126/89 97/149/97 92/151/92
f 87/121/87 92/151/92 255/133/255
f 255/133/255 93/152/93 256/144/256
f 93/152/93 103/153/103 256/144/256
f 91/142/91 110/154/110 111/155/111
f 92/151/92 111/155/111 99/156/99
f 97/149/97 111/155/111 92/151/92
f 92/151/92 99/156/99 100/157/100
f 224/158/224 223/159/223 218/160/218
f 222/161/222 223/162/223 224/163/224
f 262/164/262 223/162/223 222/165/222
f 93/152/93 260/166/260 103/153/103
f 103/153/103 259/167/259 104/145/104
f 259/167/259 118/168/118 104/145/104
f 258/143/258 110/154/110 105/146/105
f 105/146/105 110/154/110 91/142/91
f 107/139/107 94/169/94 109/170/109
f 258/143/258 108/171/108 110/154/110
f 222/165/222 115/150/115 262/164/262
f 100/157/100 116/172/116 260/166/260
f 98/173/98 112/174/112 250/128/250
f 260/166/260 263/175/263 259/167/259
f 250/128/250 112/174/112 258/143/258
f 115/150/115 114/176/114 262/164/262
f 223/177/223 226/178/226 218/179/218
f 100/157/100 6/180/6 116/172/116
f 261/181/261 6/180/6 100/157/100
f 6/180/6 267/182/267 116/172/116
f 263/175/263 117/183/117 118/168/118
f 112/174/112 132/184/132 108/171/108
f 109/170/109 117/183/117 120/185/120
f 102/148/102 120/185/120 113/186/113
f 99/156/99 265/187/265 261/181/261
f 265/187/265 121/188/121 261/181/261
f 265/187/265 132/184/132 274/189/274
f 120/185/120 264/190/264 124/191/124
f 113/186/113 124/191/124 272/192/272
f 121/188/121 271/193/271 125/194/125
f 113/186/113 114/176/114 115/150/115
f 121/188/121 125/194/125 268/195/268
f 273/196/273 223/197/223 262/164/262
f 121/188/121 268/195/268 6/180/6
f 267/182/267 264/190/264 117/183/117
f 268/195/268 269/198/269 6/180/6
f 266/199/266 277/200/277 130/201/130
f 269/198/269 131/202/131 119/203/119
f 112/174/112 130/201/130 132/184/132
f 119/203/119 278/204/278 264/190/264
f 264/190/264 278/204/278 270/205/270
f 270/205/270 137/206/137 124/191/124
f 271/193/271 274/189/274 123/207/123
f 125/194/125 123/207/123 129/208/129
f 272/192/272 275/209/275 114/176/114
f 268/195/268 125/194/125 276/210/276
f 123/207/123 133/211/133 138/212/138
f 129/208/129 123/207/123 126/213/126
f 123/207/123 138/212/138 126/213/126
f 226/214/226 227/215/227 218/216/218
f 276/210/276 135/217/135 269/198/269
f 130/201/130 136/218/136 122/219/122
f 132/184/132 122/219/122 136/218/136
f 278/204/278 8/220/8 270/205/270
f 283/221/283 284/222/284 279/223/279
f 225/224/225 285/225/285 130/201/130
f 279/223/279 127/226/127 131/202/131
f 127/226/127 286/227/286 278/204/278
f 278/204/278 287/228/287 8/220/8
f 137/206/137 134/229/134 7/230/7
f 137/206/137 8/220/8 134/229/134
f 139/231/139 144/232/144 145/233/145
f 129/208/129 126/213/126 144/232/144
f 227/234/227 128/235/128 149/236/149
f 227/234/227 290/237/290 218/238/218
f 8/220/8 280/239/280 134/229/134
f 144/232/144 126/213/126 281/240/281
f 281/240/281 288/241/288 144/232/144
f 275/209/275 134/229/134 149/236/149
f 145/233/145 141/242/141 283/221/283
f 228/243/228 282/244/282 225/245/225
f 130/201/130 285/225/285 150/246/150
f 286/227/286 143/247/143 287/228/287
f 8/220/8 287/228/287 147/248/147
f 147/248/147 280/239/280 8/220/8
f 133/211/133 151/249/151 138/212/138
f 126/213/126 138/212/138 281/240/281
f 143/247/143 291/250/291 146/251/146
f 150/246/150 285/225/285 152/252/152
f 143/247/143 158/253/158 287/228/287
f 143/247/143 146/251/146 158/253/158
f 140/254/140 152/252/152 151/249/151
f 287/228/287 294/255/294 147/248/147
f 280/239/280 147/248/147 148/256/148
f 151/249/151 292/257/292 281/240/281
f 288/241/288 292/257/292 289/258/289
f 288/241/288 289/258/289 141/242/141
f 228/259/228 225/260/225 1/261/1
f 142/262/142 156/263/156 291/250/291
f 284/222/284 142/262/142 291/250/291
f 142/262/142 289/258/289 156/263/156
f 151/249/151 164/264/164 159/265/159
f 149/236/149 148/256/148 154/266/154
f 293/267/293 159/265/159 295/268/295
f 292/257/292 155/269/155 289/258/289
f 230/270/230 229/271/229 228/272/228
f 290/273/290 296/274/296 218/275/218
f 156/263/156 155/269/155 157/276/157
f 291/250/291 156/263/156 157/276/157
f 146/251/146 157/276/157 158/253/158
f 287/228/287 158/253/158 294/255/294
f 294/255/294 153/277/153 147/248/147
f 294/255/294 160/278/160 153/277/153
f 152/252/152 285/225/285 189/279/189
f 162/280/162 168/281/168 163/282/163
f 164/264/164 171/283/171 165/284/165
f 297/285/297 162/280/162 157/276/157
f 155/269/155 297/285/297 157/276/157
f 295/286/295 172/287/172 299/288/299
f 298/289/298 11/290/11 296/291/296
f 167/292/167 173/293/173 297/294/297
f 297/294/297 166/295/166 162/296/162
f 285/297/285 230/298/230 174/299/174
f 168/300/168 160/301/160 163/302/163
f 160/301/160 170/303/170 169/304/169
f 161/305/161 169/304/169 301/306/301
f 159/307/159 165/308/165 172/287/172
f 171/309/171 189/310/189 181/311/181
f 169/304/169 170/303/170 177/312/177
f 165/308/165 181/311/181 182/313/182
f 301/306/301 169/304/169 183/314/183
f 172/287/172 182/313/182 184/315/184
f 301/306/301 10/316/10 298/289/298
f 184/315/184 173/293/173 299/288/299
f 184/315/184 9/317/9 173/293/173
f 285/297/285 174/299/174 189/310/189
f 298/289/298 178/318/178 11/290/11
f 10/316/10 178/318/178 298/289/298
f 9/317/9 188/319/188 173/293/173
f 192/320/192 174/299/174 228/321/228
f 300/322/300 176/323/176 302/324/302
f 170/303/170 302/324/302 177/312/177
f 181/311/181 180/325/180 303/326/303
f 169/304/169 186/327/186 304/328/304
f 182/313/182 303/326/303 305/329/305
f 184/315/184 305/329/305 9/317/9
f 180/325/180 312/330/312 303/326/303
f 304/328/304 186/327/186 194/331/194
f 186/327/186 191/332/191 194/331/194
f 303/326/303 195/333/195 305/329/305
f 304/328/304 13/334/13 10/316/10
f 13/334/13 206/335/206 10/316/10
f 305/329/305 309/336/309 187/337/187
f 187/337/187 309/336/309 306/338/306
f 188/319/188 306/338/306 12/339/12
f 175/340/175 188/319/188 176/323/176
f 192/320/192 201/341/201 174/299/174
f 302/324/302 176/323/176 185/342/185
f 185/342/185 176/323/176 307/343/307
f 176/323/176 12/339/12 307/343/307
f 185/342/185 307/343/307 190/344/190
f 194/331/194 191/332/191 198/345/198
f 312/330/312 195/333/195 303/326/303
f 194/331/194 198/345/198 13/334/13
f 195/333/195 199/346/199 309/336/309
f 199/346/199 200/347/200 309/336/309
f 311/348/311 208/349/208 199/346/199
f 312/330/312 311/348/311 195/333/195
f 308/350/308 197/351/197 206/335/206
f 306/338/306 200/347/200 14/352/14
f 200/347/200 210/353/210 14/352/14
f 178/354/178 214/355/214 11/356/11
f 307/343/307 14/352/14 207/357/207
f 307/343/307 310/358/310 190/344/190
f 190/344/190 310/358/310 191/332/191
f 312/330/312 313/22/313 311/348/311
f 193/359/193 313/22/313 312/330/312
f 14/352/14 317/360/317 196/361/196
f 14/352/14 204/362/204 317/360/317
f 316/15/316 20/17/20 202/363/202
f 196/361/196 314/364/314 310/358/310
f 310/358/310 205/365/205 198/345/198
f 198/345/198 205/365/205 197/351/197
f 311/348/311 203/366/203 208/349/208
f 212/23/212 203/366/203 311/348/311
f 203/366/203 216/5/216 213/4/213
f 313/22/313 212/23/212 311/348/311
f 210/353/210 203/366/203 217/9/217
f 206/335/206 315/7/315 209/367/209
f 178/318/178 209/367/209 214/28/214
f 204/362/204 18/10/18 318/12/318
f 317/360/317 211/19/211 196/361/196
f 317/360/317 318/12/318 211/19/211
f 196/361/196 319/1/319 314/364/314
f 319/1/319 215/3/215 205/365/205
f 215/3/215 23/46/23 233/8/233
f 209/367/209 315/7/315 233/8/233
f 18/10/18 217/9/217 16/6/16
f 318/12/318 18/10/18 17/13/17
f 17/13/17 18/10/18 24/11/24
f 228/368/228 15/369/15 316/370/316
f 11/371/11 214/372/214 218/373/218
f 316/15/316 15/369/15 29/16/29
f 318/12/318 19/14/19 3/18/3
f 211/19/211 28/20/28 231/2/231
f 3/18/3 22/34/22 28/20/28
f 216/5/216 2/21/2 236/43/236
f 236/43/236 2/21/2 29/16/29
f 215/3/215 34/24/34 23/46/23
f 24/11/24 16/6/16 234/26/234
f 214/28/214 209/367/209 233/8/233
f 27/33/27 17/13/17 21/27/21
f 29/16/29 15/31/15 37/40/37
f 19/14/19 27/33/27 22/34/22
f 20/17/20 29/16/29 2/21/2
f 22/34/22 27/33/27 26/38/26
f 28/20/28 22/34/22 31/42/31
f 32/60/32 28/20/28 31/42/31
f 34/24/34 231/2/231 25/44/25
f 25/44/25 28/20/28 32/60/32
f 216/5/216 236/43/236 235/45/235
f 16/6/16 4/25/4 234/26/234
f 234/26/234 41/51/41 232/37/232
f 234/26/234 237/48/237 41/51/41
f 235/45/235 236/43/236 38/63/38
f 30/47/30 53/81/53 5/29/5
f 30/47/30 44/64/44 53/81/53
f 218/36/218 5/29/5 33/374/33
f 33/374/33 5/29/5 45/74/45
f 232/37/232 41/51/41 36/41/36
f 36/41/36 40/52/40 42/59/42
f 31/42/31 26/38/26 36/41/36
f 31/42/31 36/41/36 42/59/42
f 236/43/236 37/40/37 35/56/35
f 31/42/31 42/59/42 49/61/49
f 32/60/32 31/42/31 49/61/49
f 25/44/25 32/60/32 39/62/39
f 4/25/4 235/45/235 47/50/47
f 237/48/237 47/50/47 238/65/238
f 41/51/41 237/48/237 40/52/40
f 45/74/45 5/29/5 53/81/53
f 46/49/46 39/62/39 43/66/43
f 44/64/44 46/49/46 55/67/55
f 47/50/47 241/69/241 54/70/54
f 238/65/238 47/50/47 54/70/54
f 40/52/40 238/65/238 48/71/48
f 218/375/218 33/73/33 221/376/221
f 49/61/49 42/59/42 239/58/239
f 50/57/50 35/56/35 219/84/219
f 35/56/35 1/377/1 219/84/219
f 39/62/39 239/58/239 43/66/43
f 59/96/59 50/57/50 90/91/90
f 63/76/63 50/57/50 59/96/59
f 44/64/44 55/67/55 56/378/56
f 241/69/241 58/68/58 51/94/51
f 57/82/57 241/69/241 51/94/51
f 44/64/44 56/378/56 65/104/65
f 241/69/241 57/82/57 54/70/54
f 53/81/53 66/80/66 45/74/45
f 48/71/48 54/70/54 52/77/52
f 67/101/67 51/94/51 60/102/60
f 44/64/44 65/104/65 66/80/66
f 57/82/57 51/94/51 67/101/67
f 52/77/52 68/87/68 62/78/62
f 240/75/240 62/78/62 64/79/64
f 51/94/51 76/93/76 60/102/60
f 242/89/242 74/111/74 75/95/75
f 76/93/76 63/76/63 246/97/246
f 56/378/56 55/67/55 243/100/243
f 64/79/64 82/98/82 55/67/55
f 65/104/65 243/100/243 72/105/72
f 56/378/56 243/100/243 65/104/65
f 66/80/66 72/105/72 61/115/61
f 245/379/245 220/90/220 1/380/1
f 68/87/68 73/107/73 242/89/242
f 70/103/70 244/112/244 88/141/88
f 69/113/69 70/103/70 88/141/88
f 67/101/67 70/103/70 71/106/71
f 72/105/72 96/125/96 249/129/249
f 84/114/84 71/106/71 69/113/69
f 224/116/224 61/115/61 72/105/72
f 74/111/74 73/107/73 84/114/84
f 90/91/90 220/90/220 245/127/245
f 81/92/81 75/95/75 87/121/87
f 76/93/76 246/97/246 83/137/83
f 77/99/77 82/98/82 248/119/248
f 76/93/76 83/137/83 244/112/244
f 243/100/243 248/119/248 80/120/80
f 82/98/82 81/92/81 247/122/247
f 82/98/82 247/122/247 79/123/79
f 244/112/244 83/137/83 85/138/85
f 248/119/248 95/124/95 80/120/80
f 244/112/244 85/138/85 88/141/88
f 69/113/69 88/141/88 86/132/86
f 72/105/72 249/129/249 224/131/224
f 87/121/87 84/114/84 89/126/89
f 80/120/80 107/139/107 96/125/96
f 86/132/86 88/141/88 252/140/252
f 96/125/96 115/150/115 249/129/249
f 245/127/245 257/381/257 250/128/250
f 78/118/78 250/128/250 253/135/253
f 79/123/79 247/122/247 255/133/255
f 254/134/254 255/133/255 256/144/256
f 246/97/246 253/135/253 251/136/251
f 256/144/256 103/153/103 104/145/104
f 79/123/79 254/134/254 95/124/95
f 251/136/251 105/146/105 91/142/91
f 95/124/95 106/147/106 107/139/107
f 107/139/107 106/147/106 94/169/94
f 86/132/86 252/140/252 91/142/91
f 1/382/1 257/383/257 245/384/245
f 87/121/87 89/126/89 92/151/92
f 255/133/255 92/151/92 93/152/93
f 97/149/97 91/142/91 111/155/111
f 222/165/222 249/129/249 115/150/115
f 93/152/93 100/157/100 260/166/260
f 93/152/93 92/151/92 100/157/100
f 257/385/257 98/173/98 250/128/250
f 103/153/103 260/166/260 259/167/259
f 253/135/253 258/143/258 105/146/105
f 106/147/106 104/145/104 101/386/101
f 101/386/101 104/145/104 118/168/118
f 94/169/94 106/147/106 101/386/101
f 102/148/102 107/139/107 109/170/109
f 259/167/259 263/175/263 118/168/118
f 109/170/109 101/386/101 118/168/118
f 94/169/94 101/386/101 109/170/109
f 102/148/102 109/170/109 120/185/120
f 111/155/111 110/154/110 99/156/99
f 115/150/115 102/148/102 113/186/113
f 257/387/257 1/388/1 98/173/98
f 260/166/260 116/172/116 263/175/263
f 262/164/262 114/176/114 273/196/273
f 100/157/100 99/156/99 261/181/261
f 261/181/261 121/188/121 6/180/6
f 98/173/98 266/199/266 112/174/112
f 116/172/116 267/182/267 117/183/117
f 263/175/263 116/172/116 117/183/117
f 258/143/258 112/174/112 108/171/108
f 109/170/109 118/168/118 117/183/117
f 99/156/99 108/171/108 265/187/265
f 99/156/99 110/154/110 108/171/108
f 120/185/120 117/183/117 264/190/264
f 108/171/108 132/184/132 265/187/265
f 271/193/271 265/187/265 274/189/274
f 113/186/113 120/185/120 124/191/124
f 114/176/114 113/186/113 272/192/272
f 121/188/121 265/187/265 271/193/271
f 1/389/1 266/199/266 98/390/98
f 273/196/273 226/391/226 223/197/223
f 267/182/267 6/180/6 119/203/119
f 267/182/267 119/203/119 264/190/264
f 225/392/225 266/199/266 1/393/1
f 268/195/268 276/210/276 269/198/269
f 112/174/112 266/199/266 130/201/130
f 6/180/6 269/198/269 119/203/119
f 132/184/132 130/201/130 122/219/122
f 274/189/274 132/184/132 136/218/136
f 264/190/264 270/205/270 124/191/124
f 7/230/7 124/191/124 137/206/137
f 272/192/272 124/191/124 7/230/7
f 125/194/125 271/193/271 123/207/123
f 114/176/114 128/235/128 273/394/273
f 276/210/276 125/194/125 129/208/129
f 123/207/123 274/189/274 133/211/133
f 272/192/272 7/230/7 134/229/134
f 114/176/114 275/209/275 128/235/128
f 276/210/276 129/208/129 139/231/139
f 225/395/225 277/200/277 266/396/266
f 276/210/276 139/231/139 135/217/135
f 269/198/269 135/217/135 131/202/131
f 135/217/135 279/223/279 131/202/131
f 119/203/119 131/202/131 278/204/278
f 131/202/131 127/226/127 278/204/278
f 274/189/274 136/218/136 133/211/133
f 270/205/270 8/220/8 137/206/137
f 135/217/135 283/221/283 279/223/279
f 135/217/135 139/231/139 283/221/283
f 277/200/277 225/224/225 130/201/130
f 279/223/279 284/222/284 127/226/127
f 136/218/136 130/201/130 150/246/150
f 133/211/133 136/218/136 140/254/140
f 278/204/278 286/227/286 287/228/287
f 275/209/275 272/192/272 134/229/134
f 139/231/139 129/208/129 144/232/144
f 227/234/227 149/236/149 290/273/290
f 139/231/139 145/233/145 283/221/283
f 134/229/134 280/239/280 149/236/149
f 149/236/149 280/239/280 148/256/148
f 144/232/144 288/241/288 145/233/145
f 145/233/145 288/241/288 141/242/141
f 128/235/128 275/209/275 149/236/149
f 282/244/282 228/243/228 229/397/229
f 284/222/284 283/221/283 142/262/142
f 283/221/283 141/242/141 142/262/142
f 225/224/225 282/244/282 285/225/285
f 127/226/127 284/222/284 143/247/143
f 143/247/143 284/222/284 291/250/291
f 127/226/127 143/247/143 286/227/286
f 136/218/136 150/246/150 140/254/140
f 133/211/133 140/254/140 151/249/151
f 138/212/138 151/249/151 281/240/281
f 282/244/282 229/398/229 285/225/285
f 140/254/140 150/246/150 152/252/152
f 281/240/281 292/257/292 288/241/288
f 128/235/128 227/215/227 226/399/226 273/394/273
f 142/262/142 141/242/141 289/258/289
f 292/257/292 151/249/151 293/267/293
f 293/267/293 151/249/151 159/265/159
f 154/266/154 148/256/148 161/400/161
f 292/257/292 293/267/293 155/269/155
f 293/267/293 295/268/295 155/269/155
f 296/274/296 149/236/149 154/266/154
f 290/273/290 149/236/149 296/274/296
f 156/263/156 289/258/289 155/269/155
f 158/253/158 157/276/157 162/280/162
f 146/251/146 291/250/291 157/276/157
f 158/253/158 162/280/162 163/282/163
f 158/253/158 163/282/163 294/255/294
f 294/255/294 163/282/163 160/278/160
f 151/249/151 152/252/152 164/264/164
f 148/256/148 147/248/147 153/277/153
f 148/256/148 153/277/153 160/278/160
f 164/264/164 152/252/152 171/401/171
f 152/252/152 189/279/189 171/401/171
f 159/265/159 164/264/164 165/284/165
f 148/256/148 160/278/160 161/400/161
f 295/268/295 159/265/159 172/402/172
f 154/266/154 161/400/161 301/403/301
f 154/266/154 301/403/301 298/404/298
f 155/269/155 295/268/295 167/405/167
f 154/266/154 298/404/298 296/274/296
f 155/269/155 167/405/167 297/285/297
f 11/406/11 218/407/218 296/274/296
f 285/225/285 229/271/229 230/408/230
f 299/288/299 172/287/172 184/315/184
f 295/286/295 299/288/299 167/292/167
f 167/292/167 299/288/299 173/293/173
f 297/294/297 173/293/173 166/295/166
f 162/296/162 166/295/166 168/300/168
f 168/300/168 166/295/166 170/303/170
f 161/305/161 160/301/160 169/304/169
f 168/300/168 170/303/170 160/301/160
f 166/295/166 300/322/300 170/303/170
f 181/311/181 189/310/189 180/325/180
f 165/308/165 171/309/171 181/311/181
f 172/287/172 165/308/165 182/313/182
f 184/315/184 182/313/182 305/329/305
f 301/306/301 183/314/183 10/316/10
f 228/409/228 174/410/174 230/411/230
f 173/293/173 179/412/179 166/295/166
f 173/293/173 175/340/175 179/412/179
f 166/295/166 179/412/179 300/322/300
f 180/325/180 189/310/189 193/359/193
f 173/293/173 188/319/188 175/340/175
f 179/412/179 175/340/175 176/323/176
f 189/310/189 174/299/174 202/363/202
f 179/412/179 176/323/176 300/322/300
f 300/322/300 302/324/302 170/303/170
f 169/304/169 177/312/177 186/327/186
f 182/313/182 181/311/181 303/326/303
f 169/304/169 304/328/304 183/314/183
f 183/314/183 304/328/304 10/316/10
f 9/317/9 305/329/305 187/337/187
f 188/319/188 9/317/9 187/337/187
f 180/325/180 193/359/193 312/330/312
f 304/328/304 194/331/194 13/334/13
f 305/329/305 195/333/195 309/336/309
f 10/316/10 206/335/206 178/318/178
f 188/319/188 187/337/187 306/338/306
f 176/323/176 188/319/188 12/339/12
f 174/299/174 201/341/201 202/363/202
f 189/310/189 202/363/202 193/359/193
f 186/327/186 302/324/302 185/342/185
f 177/312/177 302/324/302 186/327/186
f 191/332/191 186/327/186 190/344/190
f 186/327/186 185/342/185 190/344/190
f 13/334/13 308/350/308 206/335/206
f 191/332/191 310/358/310 198/345/198
f 195/333/195 311/348/311 199/346/199
f 308/350/308 198/345/198 197/351/197
f 13/334/13 198/345/198 308/350/308
f 199/346/199 208/349/208 200/347/200
f 306/338/306 309/336/309 200/347/200
f 228/413/228 201/341/201 192/414/192
f 307/343/307 12/339/12 14/352/14
f 12/339/12 306/338/306 14/352/14
f 201/341/201 316/15/316 202/363/202
f 307/343/307 207/357/207 196/361/196
f 307/343/307 196/361/196 310/358/310
f 193/359/193 202/363/202 313/22/313
f 228/415/228 316/15/316 201/416/201
f 207/357/207 14/352/14 196/361/196
f 202/363/202 20/17/20 313/22/313
f 310/358/310 314/364/314 205/365/205
f 208/349/208 203/366/203 210/353/210
f 206/335/206 197/351/197 315/7/315
f 200/347/200 208/349/208 210/353/210
f 178/318/178 206/335/206 209/367/209
f 14/352/14 210/353/210 204/362/204
f 203/366/203 212/23/212 216/5/216
f 197/351/197 205/365/205 215/3/215
f 315/7/315 197/351/197 215/3/215
f 217/9/217 203/366/203 213/4/213
f 210/353/210 217/9/217 18/10/18
f 204/362/204 210/353/210 18/10/18
f 317/360/317 204/362/204 318/12/318
f 196/361/196 211/19/211 319/1/319
f 313/22/313 2/21/2 212/23/212
f 314/364/314 319/1/319 205/365/205
